G04 Generated by Ultiboard 13.0 *
%FSLAX34Y34*%
%MOMM*%

%ADD10C,0.0001*%
%ADD11C,0.1270*%
%ADD12R,0.6000X1.5500*%
%ADD13R,1.1852X1.9472*%
%ADD14C,0.5928*%
%ADD15R,1.1500X1.4500*%
%ADD16R,1.4500X1.1500*%
%ADD17R,0.6000X1.6000*%
%ADD18R,2.5500X0.9000*%
%ADD19R,7.0000X5.3000*%
%ADD20R,1.8000X1.0500*%
%ADD21R,3.0000X1.6000*%
%ADD22R,0.5291X0.5291*%
%ADD23C,0.9949*%
%ADD24C,1.6088*%
%ADD25C,1.2700*%
%ADD26R,1.0500X1.8000*%
%ADD27O,2.2000X1.3000*%
%ADD28R,3.0053X0.9101*%
%ADD29R,2.1500X2.2500*%


G04 ColorRGB FF00CC for the following layer *
%LNSolder Mask Top*%
%LPD*%
G54D10*
G54D11*
X30463Y607052D02*
X30463Y643885D01*
X30463Y607052D02*
X68058Y607052D01*
X406408Y607052D02*
X368813Y607052D01*
X406408Y607052D02*
X406408Y643885D01*
X406408Y975377D02*
X406408Y938545D01*
X406408Y975377D02*
X368813Y975377D01*
X30463Y975377D02*
X68058Y975377D01*
X30463Y975377D02*
X30463Y938545D01*
X-19537Y607052D02*
X-119537Y607052D01*
X-69537Y557052D02*
X-69537Y657052D01*
X-107037Y607052D02*
G75*
D01*
G02X-107037Y607052I37500J0*
G01*
X456408Y607052D02*
X556408Y607052D01*
X506408Y557052D02*
X506408Y657052D01*
X468908Y607052D02*
G75*
D01*
G02X468908Y607052I37500J0*
G01*
X493908Y607052D02*
G75*
D01*
G02X493908Y607052I12500J0*
G01*
X-19537Y975377D02*
X-119537Y975377D01*
X-69537Y925377D02*
X-69537Y1025377D01*
X-107037Y975377D02*
G75*
D01*
G02X-107037Y975377I37500J0*
G01*
X-94537Y975377D02*
G75*
D01*
G02X-94537Y975377I25000J0*
G01*
X-82037Y975377D02*
G75*
D01*
G02X-82037Y975377I12500J0*
G01*
G54D12*
X204898Y680763D03*
X217598Y680763D03*
X230298Y680763D03*
X242998Y680763D03*
X255698Y680763D03*
X268398Y680763D03*
X281098Y680763D03*
X293798Y680763D03*
X204898Y734763D03*
X217598Y734763D03*
X242998Y734763D03*
X230298Y734763D03*
X255698Y734763D03*
X281098Y734763D03*
X268398Y734763D03*
X293798Y734763D03*
G54D13*
X101600Y632037D03*
X152400Y632037D03*
X101600Y729403D03*
X152400Y729403D03*
G54D14*
X95674Y622301D02*
X107526Y622301D01*
X107526Y641773D01*
X95674Y641773D01*
X95674Y622301D01*D02*
X146474Y622301D02*
X158326Y622301D01*
X158326Y641773D01*
X146474Y641773D01*
X146474Y622301D01*D02*
X95674Y719667D02*
X107526Y719667D01*
X107526Y739139D01*
X95674Y739139D01*
X95674Y719667D01*D02*
X146474Y719667D02*
X158326Y719667D01*
X158326Y739139D01*
X146474Y739139D01*
X146474Y719667D01*D02*
X56094Y757027D02*
X86146Y757027D01*
X86146Y766127D01*
X56094Y766127D01*
X56094Y757027D01*D02*
X56094Y828993D02*
X86146Y828993D01*
X86146Y838093D01*
X56094Y838093D01*
X56094Y828993D01*D02*
G54D15*
X209440Y660400D03*
X227440Y660400D03*
X245000Y660400D03*
X263000Y660400D03*
G54D16*
X187960Y661560D03*
X187960Y679560D03*
X309880Y676800D03*
X309880Y694800D03*
G54D17*
X231140Y765480D03*
X243840Y765480D03*
X256540Y765480D03*
X269240Y765480D03*
X281940Y765480D03*
X294640Y765480D03*
X307340Y765480D03*
X231140Y819480D03*
X243840Y819480D03*
X256540Y819480D03*
X269240Y819480D03*
X281940Y819480D03*
X294640Y819480D03*
X307340Y819480D03*
G54D18*
X193400Y754240D03*
X193400Y800240D03*
G54D19*
X133400Y777240D03*
G54D20*
X208280Y818120D03*
X208280Y848120D03*
X335280Y665720D03*
X335280Y695720D03*
X330200Y741920D03*
X330200Y771920D03*
X330200Y787640D03*
X330200Y817640D03*
X248920Y838440D03*
X248920Y868440D03*
X248920Y889240D03*
X248920Y919240D03*
G54D21*
X114660Y833120D03*
X159660Y833120D03*
G54D22*
X330200Y629920D03*
X208280Y955040D03*
X60960Y655320D03*
G54D23*
X327555Y627275D02*
X332845Y627275D01*
X332845Y632565D01*
X327555Y632565D01*
X327555Y627275D01*D02*
X205635Y952395D02*
X210925Y952395D01*
X210925Y957685D01*
X205635Y957685D01*
X205635Y952395D01*D02*
X58315Y652675D02*
X63605Y652675D01*
X63605Y657965D01*
X58315Y657965D01*
X58315Y652675D01*D02*
G54D24*
X304800Y629920D03*
X279400Y629920D03*
X259080Y955040D03*
X233680Y955040D03*
X284480Y955040D03*
X60960Y629920D03*
G54D25*
X360680Y746760D03*
X386080Y746760D03*
X360680Y807720D03*
X386080Y807720D03*
X360680Y665480D03*
X386080Y665480D03*
G54D26*
X315200Y843280D03*
X345200Y843280D03*
X127240Y955040D03*
X157240Y955040D03*
G54D27*
X113480Y868680D03*
X201480Y868680D03*
X113480Y894080D03*
X201480Y894080D03*
X113480Y919480D03*
X201480Y919480D03*
X286200Y868680D03*
X374200Y868680D03*
X286200Y894080D03*
X374200Y894080D03*
X286200Y919480D03*
X374200Y919480D03*
G54D28*
X71120Y761577D03*
X71120Y833543D03*
G54D29*
X60960Y684450D03*
X60960Y728450D03*
X71120Y872080D03*
X71120Y916080D03*

M02*
