G04 Generated by Ultiboard 13.0 *
%FSLAX34Y34*%
%MOMM*%

%ADD10C,0.0001*%
%ADD11C,0.2540*%
%ADD12C,0.1270*%
%ADD13R,0.5291X0.5291*%
%ADD14C,0.9949*%
%ADD15C,1.6088*%
%ADD16C,1.2700*%


G04 ColorRGB 0000FF for the following layer *
%LNCopper Bottom*%
%LPD*%
G54D10*
G54D11*
X382500Y743180D02*
X386080Y746760D01*
G54D12*
X30463Y607052D02*
X30463Y643885D01*
X30463Y607052D02*
X68058Y607052D01*
X406408Y607052D02*
X368813Y607052D01*
X406408Y607052D02*
X406408Y643885D01*
X406408Y975377D02*
X406408Y938545D01*
X406408Y975377D02*
X368813Y975377D01*
X30463Y975377D02*
X68058Y975377D01*
X30463Y975377D02*
X30463Y938545D01*
X-19537Y607052D02*
X-119537Y607052D01*
X-69537Y557052D02*
X-69537Y657052D01*
X-107037Y607052D02*
G75*
D01*
G02X-107037Y607052I37500J0*
G01*
X456408Y607052D02*
X556408Y607052D01*
X506408Y557052D02*
X506408Y657052D01*
X468908Y607052D02*
G75*
D01*
G02X468908Y607052I37500J0*
G01*
X493908Y607052D02*
G75*
D01*
G02X493908Y607052I12500J0*
G01*
X-19537Y975377D02*
X-119537Y975377D01*
X-69537Y925377D02*
X-69537Y1025377D01*
X-107037Y975377D02*
G75*
D01*
G02X-107037Y975377I37500J0*
G01*
X-94537Y975377D02*
G75*
D01*
G02X-94537Y975377I25000J0*
G01*
X-82037Y975377D02*
G75*
D01*
G02X-82037Y975377I12500J0*
G01*
G54D13*
X330200Y629920D03*
X208280Y955040D03*
X60960Y655320D03*
G54D14*
X327555Y627275D02*
X332845Y627275D01*
X332845Y632565D01*
X327555Y632565D01*
X327555Y627275D01*D02*
X205635Y952395D02*
X210925Y952395D01*
X210925Y957685D01*
X205635Y957685D01*
X205635Y952395D01*D02*
X58315Y652675D02*
X63605Y652675D01*
X63605Y657965D01*
X58315Y657965D01*
X58315Y652675D01*D02*
G54D15*
X304800Y629920D03*
X279400Y629920D03*
X259080Y955040D03*
X233680Y955040D03*
X284480Y955040D03*
X60960Y629920D03*
G54D16*
X360680Y746760D03*
X386080Y746760D03*
X360680Y807720D03*
X386080Y807720D03*
X360680Y665480D03*
X386080Y665480D03*

M02*
