G04 Generated by Ultiboard 13.0 *
%FSLAX34Y34*%
%MOMM*%

%ADD10C,0.0001*%
%ADD11C,0.1556*%
%ADD12C,0.2000*%
%ADD13C,0.5000*%
%ADD14C,0.2500*%
%ADD15C,0.1176*%
%ADD16C,0.2032*%
%ADD17C,0.1270*%


G04 ColorRGB FFFF00 for the following layer *
%LNSilkscreen Top*%
%LPD*%
G54D10*
G54D11*
X224516Y700200D02*
X224516Y706200D01*
X224516Y707200D01*
X224516Y706200D02*
X225511Y707200D01*
X226507Y707200D01*
X227502Y706200D01*
X228498Y707200D01*
X229493Y707200D01*
X230489Y706200D01*
X230489Y700200D01*
X227502Y706200D02*
X227502Y700200D01*
X234471Y707200D02*
X237458Y707200D01*
X238453Y706200D01*
X238453Y701200D01*
X237458Y700200D01*
X234471Y700200D01*
X233476Y701200D01*
X233476Y703200D01*
X234471Y704200D01*
X238453Y704200D01*
X238453Y701200D02*
X239449Y700200D01*
X242436Y700200D02*
X248409Y707200D01*
X242436Y707200D02*
X248409Y700200D01*
X251396Y708200D02*
X253387Y710200D01*
X255378Y710200D01*
X257369Y708200D01*
X257369Y707200D01*
X251396Y700200D01*
X257369Y700200D01*
X257369Y701200D01*
X261351Y709200D02*
X262347Y710200D01*
X264338Y710200D01*
X266329Y708200D01*
X266329Y706200D01*
X265333Y705200D01*
X266329Y704200D01*
X266329Y702200D01*
X264338Y700200D01*
X262347Y700200D01*
X261351Y701200D01*
X262347Y705200D02*
X265333Y705200D01*
X269316Y708200D02*
X271307Y710200D01*
X273298Y710200D01*
X275289Y708200D01*
X275289Y707200D01*
X269316Y700200D01*
X275289Y700200D01*
X275289Y701200D01*
X198031Y647400D02*
X199027Y648400D01*
X201018Y648400D01*
X203009Y646400D01*
X203009Y644400D01*
X202013Y643400D01*
X203009Y642400D01*
X203009Y640400D01*
X201018Y638400D01*
X199027Y638400D01*
X198031Y639400D01*
X199027Y643400D02*
X202013Y643400D01*
X205996Y642400D02*
X211969Y642400D01*
X215951Y646400D02*
X217942Y648400D01*
X217942Y638400D01*
X214956Y638400D02*
X220929Y638400D01*
X223916Y645400D02*
X223916Y640400D01*
X225907Y638400D01*
X227898Y638400D01*
X229889Y640400D01*
X229889Y645400D01*
X229889Y640400D02*
X229889Y638400D01*
X232876Y638400D02*
X232876Y648400D01*
X238849Y648400D01*
X232876Y643400D02*
X236858Y643400D01*
X232596Y646400D02*
X234587Y648400D01*
X236578Y648400D01*
X238569Y646400D01*
X238569Y645400D01*
X232596Y638400D01*
X238569Y638400D01*
X238569Y639400D01*
X241556Y642400D02*
X247529Y642400D01*
X251511Y646400D02*
X253502Y648400D01*
X253502Y638400D01*
X250516Y638400D02*
X256489Y638400D01*
X259476Y645400D02*
X259476Y640400D01*
X261467Y638400D01*
X263458Y638400D01*
X265449Y640400D01*
X265449Y645400D01*
X265449Y640400D02*
X265449Y638400D01*
X268436Y638400D02*
X268436Y648400D01*
X274409Y648400D01*
X268436Y643400D02*
X272418Y643400D01*
X187340Y648351D02*
X187340Y654324D01*
X193340Y649347D01*
X183340Y649347D01*
X183340Y650342D02*
X183340Y648351D01*
X187340Y645364D02*
X187340Y639391D01*
X191340Y635409D02*
X193340Y633418D01*
X183340Y633418D01*
X183340Y636404D02*
X183340Y630431D01*
X190340Y627444D02*
X185340Y627444D01*
X183340Y625453D01*
X183340Y623462D01*
X185340Y621471D01*
X190340Y621471D01*
X185340Y621471D02*
X183340Y621471D01*
X183340Y618484D02*
X193340Y618484D01*
X193340Y612511D01*
X188340Y618484D02*
X188340Y614502D01*
X308180Y666029D02*
X310180Y664038D01*
X300180Y664038D01*
X300180Y667024D02*
X300180Y661051D01*
X304180Y658064D02*
X304180Y652091D01*
X308180Y648109D02*
X310180Y646118D01*
X300180Y646118D01*
X300180Y649104D02*
X300180Y643131D01*
X307180Y640144D02*
X302180Y640144D01*
X300180Y638153D01*
X300180Y636162D01*
X302180Y634171D01*
X307180Y634171D01*
X302180Y634171D02*
X300180Y634171D01*
X300180Y631184D02*
X310180Y631184D01*
X310180Y625211D01*
X305180Y631184D02*
X305180Y627202D01*
X237662Y788583D02*
X237662Y793583D01*
X240649Y796583D01*
X240649Y798583D01*
X234676Y798583D01*
X234676Y796583D01*
X249609Y792583D02*
X243636Y792583D01*
X248613Y798583D01*
X248613Y788583D01*
X247618Y788583D02*
X249609Y788583D01*
X253591Y795583D02*
X256578Y795583D01*
X257573Y794583D01*
X257573Y789583D01*
X256578Y788583D01*
X253591Y788583D01*
X252596Y789583D01*
X252596Y791583D01*
X253591Y792583D01*
X257573Y792583D01*
X257573Y789583D02*
X258569Y788583D01*
X266533Y789583D02*
X265538Y788583D01*
X263547Y788583D01*
X261556Y790583D01*
X261556Y793583D01*
X263547Y795583D01*
X265538Y795583D01*
X266533Y794583D01*
X271511Y796583D02*
X273502Y798583D01*
X273502Y788583D01*
X270516Y788583D02*
X276489Y788583D01*
X285449Y792583D02*
X279476Y792583D01*
X284453Y798583D01*
X284453Y788583D01*
X283458Y788583D02*
X285449Y788583D01*
X176702Y781480D02*
X176702Y786480D01*
X179689Y789480D01*
X179689Y791480D01*
X173716Y791480D01*
X173716Y789480D01*
X186658Y781480D02*
X184667Y781480D01*
X182676Y783480D01*
X182676Y785480D01*
X183671Y786480D01*
X182676Y787480D01*
X182676Y789480D01*
X184667Y791480D01*
X186658Y791480D01*
X188649Y789480D01*
X188649Y787480D01*
X187653Y786480D01*
X188649Y785480D01*
X188649Y783480D01*
X186658Y781480D01*
X183671Y786480D02*
X187653Y786480D01*
X191636Y781480D02*
X191636Y787480D01*
X191636Y788480D01*
X191636Y787480D02*
X192631Y788480D01*
X193627Y788480D01*
X194622Y787480D01*
X195618Y788480D01*
X196613Y788480D01*
X197609Y787480D01*
X197609Y781480D01*
X194622Y787480D02*
X194622Y781480D01*
X200596Y789480D02*
X202587Y791480D01*
X204578Y791480D01*
X206569Y789480D01*
X206569Y783480D01*
X204578Y781480D01*
X202587Y781480D01*
X200596Y783480D01*
X200596Y789480D01*
X206569Y789480D02*
X200596Y783480D01*
X215529Y791480D02*
X209556Y791480D01*
X209556Y787480D01*
X213538Y787480D01*
X215529Y785480D01*
X215529Y783480D01*
X213538Y781480D01*
X209556Y781480D01*
X184780Y841084D02*
X194780Y841084D01*
X194780Y837102D01*
X192780Y835111D01*
X191780Y835111D01*
X189780Y837102D01*
X189780Y841084D01*
X189780Y840089D02*
X184780Y835111D01*
X192780Y832124D02*
X194780Y830133D01*
X194780Y828142D01*
X192780Y826151D01*
X191780Y826151D01*
X184780Y832124D01*
X184780Y826151D01*
X185780Y826151D01*
X120031Y819960D02*
X122022Y821960D01*
X122022Y811960D01*
X119036Y811960D02*
X125009Y811960D01*
X127996Y819960D02*
X129987Y821960D01*
X131978Y821960D01*
X133969Y819960D01*
X133969Y813960D01*
X131978Y811960D01*
X129987Y811960D01*
X127996Y813960D01*
X127996Y819960D01*
X133969Y819960D02*
X127996Y813960D01*
X136956Y818960D02*
X136956Y813960D01*
X138947Y811960D01*
X140938Y811960D01*
X142929Y813960D01*
X142929Y818960D01*
X142929Y813960D02*
X142929Y811960D01*
X145916Y811960D02*
X145916Y821960D01*
X151889Y821960D01*
X145916Y816960D02*
X149898Y816960D01*
X357440Y696509D02*
X358440Y695513D01*
X358440Y693522D01*
X356440Y691531D01*
X354440Y691531D01*
X353440Y692527D01*
X352440Y691531D01*
X350440Y691531D01*
X348440Y693522D01*
X348440Y695513D01*
X349440Y696509D01*
X353440Y695513D02*
X353440Y692527D01*
X352440Y688544D02*
X352440Y682571D01*
X356440Y678589D02*
X358440Y676598D01*
X348440Y676598D01*
X348440Y679584D02*
X348440Y673611D01*
X352440Y670624D02*
X352440Y668633D01*
X355440Y665647D01*
X352440Y668633D02*
X348440Y665647D01*
X348440Y670624D02*
X358440Y670624D01*
X305260Y741196D02*
X303260Y743187D01*
X303260Y745178D01*
X305260Y747169D01*
X306260Y747169D01*
X313260Y741196D01*
X313260Y747169D01*
X312260Y747169D01*
X309260Y750156D02*
X309260Y756129D01*
X305260Y760111D02*
X303260Y762102D01*
X313260Y762102D01*
X313260Y759116D02*
X313260Y765089D01*
X309260Y768076D02*
X309260Y770067D01*
X306260Y773053D01*
X309260Y770067D02*
X313260Y773053D01*
X313260Y768076D02*
X303260Y768076D01*
X307800Y792596D02*
X305800Y794587D01*
X305800Y796578D01*
X307800Y798569D01*
X308800Y798569D01*
X315800Y792596D01*
X315800Y798569D01*
X314800Y798569D01*
X307800Y801556D02*
X305800Y803547D01*
X305800Y805538D01*
X307800Y807529D01*
X308800Y807529D01*
X315800Y801556D01*
X315800Y807529D01*
X314800Y807529D01*
X307800Y810516D02*
X305800Y812507D01*
X305800Y814498D01*
X307800Y816489D01*
X313800Y816489D01*
X315800Y814498D01*
X315800Y812507D01*
X313800Y810516D01*
X307800Y810516D01*
X307800Y816489D02*
X313800Y810516D01*
X314411Y827580D02*
X316402Y829580D01*
X316402Y819580D01*
X313416Y819580D02*
X319389Y819580D01*
X322376Y823580D02*
X328349Y823580D01*
X332331Y827580D02*
X334322Y829580D01*
X334322Y819580D01*
X331336Y819580D02*
X337309Y819580D01*
X340296Y823580D02*
X342287Y823580D01*
X345273Y826580D01*
X342287Y823580D02*
X345273Y819580D01*
X340296Y819580D02*
X340296Y829580D01*
X131531Y875840D02*
X133522Y877840D01*
X133522Y867840D01*
X130536Y867840D02*
X136509Y867840D01*
X139496Y871840D02*
X145469Y871840D01*
X154429Y871840D02*
X148456Y871840D01*
X153433Y877840D01*
X153433Y867840D01*
X152438Y867840D02*
X154429Y867840D01*
X157416Y867840D02*
X157416Y873840D01*
X157416Y874840D01*
X157416Y873840D02*
X158411Y874840D01*
X160402Y874840D01*
X161398Y873840D01*
X161398Y867840D01*
X167371Y876840D02*
X168367Y877840D01*
X170358Y877840D01*
X172349Y875840D01*
X172349Y873840D01*
X171353Y872840D01*
X172349Y871840D01*
X172349Y869840D01*
X170358Y867840D01*
X168367Y867840D01*
X167371Y868840D01*
X168367Y872840D02*
X171353Y872840D01*
X181309Y877840D02*
X175336Y877840D01*
X175336Y873840D01*
X179318Y873840D01*
X181309Y871840D01*
X181309Y869840D01*
X179318Y867840D01*
X175336Y867840D01*
X305656Y924100D02*
X307647Y926100D01*
X309638Y926100D01*
X311629Y924100D01*
X311629Y923100D01*
X305656Y916100D01*
X311629Y916100D01*
X311629Y917100D01*
X314616Y920100D02*
X320589Y920100D01*
X329549Y920100D02*
X323576Y920100D01*
X328553Y926100D01*
X328553Y916100D01*
X327558Y916100D02*
X329549Y916100D01*
X332536Y916100D02*
X332536Y922100D01*
X332536Y923100D01*
X332536Y922100D02*
X333531Y923100D01*
X335522Y923100D01*
X336518Y922100D01*
X336518Y916100D01*
X342491Y925100D02*
X343487Y926100D01*
X345478Y926100D01*
X347469Y924100D01*
X347469Y922100D01*
X346473Y921100D01*
X347469Y920100D01*
X347469Y918100D01*
X345478Y916100D01*
X343487Y916100D01*
X342491Y917100D01*
X343487Y921100D02*
X346473Y921100D01*
X356429Y926100D02*
X350456Y926100D01*
X350456Y922100D01*
X354438Y922100D01*
X356429Y920100D01*
X356429Y918100D01*
X354438Y916100D01*
X350456Y916100D01*
X264420Y827556D02*
X262420Y829547D01*
X262420Y831538D01*
X264420Y833529D01*
X265420Y833529D01*
X272420Y827556D01*
X272420Y833529D01*
X271420Y833529D01*
X268420Y836516D02*
X268420Y842489D01*
X263420Y846471D02*
X262420Y847467D01*
X262420Y849458D01*
X264420Y851449D01*
X266420Y851449D01*
X267420Y850453D01*
X268420Y851449D01*
X270420Y851449D01*
X272420Y849458D01*
X272420Y847467D01*
X271420Y846471D01*
X267420Y847467D02*
X267420Y850453D01*
X263420Y855431D02*
X262420Y856427D01*
X262420Y858418D01*
X264420Y860409D01*
X266420Y860409D01*
X267420Y859413D01*
X268420Y860409D01*
X270420Y860409D01*
X272420Y858418D01*
X272420Y856427D01*
X271420Y855431D01*
X267420Y856427D02*
X267420Y859413D01*
X264420Y863396D02*
X262420Y865387D01*
X262420Y867378D01*
X264420Y869369D01*
X270420Y869369D01*
X272420Y867378D01*
X272420Y865387D01*
X270420Y863396D01*
X264420Y863396D01*
X264420Y869369D02*
X270420Y863396D01*
X268420Y872356D02*
X268420Y874347D01*
X265420Y877333D01*
X268420Y874347D02*
X272420Y877333D01*
X272420Y872356D02*
X262420Y872356D01*
X226520Y879211D02*
X224520Y881202D01*
X234520Y881202D01*
X234520Y878216D02*
X234520Y884189D01*
X230520Y887176D02*
X230520Y893149D01*
X225520Y897131D02*
X224520Y898127D01*
X224520Y900118D01*
X226520Y902109D01*
X228520Y902109D01*
X229520Y901113D01*
X230520Y902109D01*
X232520Y902109D01*
X234520Y900118D01*
X234520Y898127D01*
X233520Y897131D01*
X229520Y898127D02*
X229520Y901113D01*
X225520Y906091D02*
X224520Y907087D01*
X224520Y909078D01*
X226520Y911069D01*
X228520Y911069D01*
X229520Y910073D01*
X230520Y911069D01*
X232520Y911069D01*
X234520Y909078D01*
X234520Y907087D01*
X233520Y906091D01*
X229520Y907087D02*
X229520Y910073D01*
X226520Y914056D02*
X224520Y916047D01*
X224520Y918038D01*
X226520Y920029D01*
X232520Y920029D01*
X234520Y918038D01*
X234520Y916047D01*
X232520Y914056D01*
X226520Y914056D01*
X226520Y920029D02*
X232520Y914056D01*
X230520Y923016D02*
X230520Y925007D01*
X227520Y927993D01*
X230520Y925007D02*
X234520Y927993D01*
X234520Y923016D02*
X224520Y923016D01*
X80660Y719471D02*
X80660Y725444D01*
X86660Y720467D01*
X76660Y720467D01*
X76660Y721462D02*
X76660Y719471D01*
X84660Y716484D02*
X86660Y714493D01*
X86660Y712502D01*
X84660Y710511D01*
X78660Y710511D01*
X76660Y712502D01*
X76660Y714493D01*
X78660Y716484D01*
X84660Y716484D01*
X84660Y710511D02*
X78660Y716484D01*
X84660Y707524D02*
X86660Y705533D01*
X86660Y703542D01*
X84660Y701551D01*
X78660Y701551D01*
X76660Y703542D01*
X76660Y705533D01*
X78660Y707524D01*
X84660Y707524D01*
X84660Y701551D02*
X78660Y707524D01*
X76660Y695578D02*
X81660Y695578D01*
X84660Y692591D01*
X86660Y692591D01*
X86660Y698564D01*
X84660Y698564D01*
X71740Y854091D02*
X71740Y860064D01*
X77740Y855087D01*
X67740Y855087D01*
X67740Y856082D02*
X67740Y854091D01*
X75740Y850109D02*
X77740Y848118D01*
X67740Y848118D01*
X67740Y851104D02*
X67740Y845131D01*
X71740Y836171D02*
X71740Y842144D01*
X77740Y837167D01*
X67740Y837167D01*
X67740Y838162D02*
X67740Y836171D01*
X67740Y829202D02*
X67740Y831193D01*
X69740Y833184D01*
X71740Y833184D01*
X72740Y832189D01*
X73740Y833184D01*
X75740Y833184D01*
X77740Y831193D01*
X77740Y829202D01*
X75740Y827211D01*
X73740Y827211D01*
X72740Y828207D01*
X71740Y827211D01*
X69740Y827211D01*
X67740Y829202D01*
X72740Y832189D02*
X72740Y828207D01*
X135769Y935540D02*
X129796Y935540D01*
X134773Y941540D01*
X134773Y931540D01*
X133778Y931540D02*
X135769Y931540D01*
X139751Y940540D02*
X140747Y941540D01*
X142738Y941540D01*
X144729Y939540D01*
X144729Y937540D01*
X143733Y936540D01*
X144729Y935540D01*
X144729Y933540D01*
X142738Y931540D01*
X140747Y931540D01*
X139751Y932540D01*
X140747Y936540D02*
X143733Y936540D01*
X147716Y939540D02*
X149707Y941540D01*
X151698Y941540D01*
X153689Y939540D01*
X153689Y933540D01*
X151698Y931540D01*
X149707Y931540D01*
X147716Y933540D01*
X147716Y939540D01*
X153689Y939540D02*
X147716Y933540D01*
G54D12*
X298848Y691763D02*
X298848Y723763D01*
X199848Y723763D02*
X199848Y691763D01*
X298848Y691763D01*
X298848Y723763D02*
X199848Y723763D01*
X226240Y808230D02*
X226240Y776730D01*
X312240Y776730D02*
X312240Y808230D01*
X226240Y808230D01*
X226240Y776730D02*
X312240Y776730D01*
X200280Y839120D02*
X200280Y827120D01*
X216280Y839120D02*
X216280Y827120D01*
X216280Y839120D02*
X216280Y827120D01*
X123910Y859620D02*
X163660Y859620D01*
X123910Y806620D02*
X163660Y806620D01*
X110660Y821620D02*
X110660Y819870D01*
X123910Y806620D01*
X110660Y844620D02*
X110660Y846370D01*
X123910Y859620D01*
X163660Y806620D02*
X163660Y821620D01*
X163660Y859620D02*
X163660Y844620D01*
X327280Y686720D02*
X327280Y674720D01*
X343280Y686720D02*
X343280Y674720D01*
X343280Y686720D02*
X343280Y674720D01*
X338200Y750920D02*
X338200Y762920D01*
X322200Y750920D02*
X322200Y762920D01*
X322200Y750920D02*
X322200Y762920D01*
X338200Y796640D02*
X338200Y808640D01*
X322200Y796640D02*
X322200Y808640D01*
X322200Y796640D02*
X322200Y808640D01*
X336200Y851280D02*
X324200Y851280D01*
X336200Y835280D02*
X324200Y835280D01*
X336200Y835280D02*
X324200Y835280D01*
X187230Y930580D02*
X127730Y930580D01*
X127730Y857580D01*
X187230Y857580D01*
X187230Y930580D01*
X300450Y857580D02*
X359950Y857580D01*
X359950Y930580D01*
X300450Y930580D01*
X300450Y857580D01*
X256920Y847440D02*
X256920Y859440D01*
X240920Y847440D02*
X240920Y859440D01*
X240920Y847440D02*
X240920Y859440D01*
X256920Y898240D02*
X256920Y910240D01*
X240920Y898240D02*
X240920Y910240D01*
X240920Y898240D02*
X240920Y910240D01*
X42960Y733450D02*
X42960Y679450D01*
X78960Y733450D02*
X78960Y679450D01*
X46460Y733450D02*
X42960Y733450D01*
X75460Y733450D02*
X78960Y733450D01*
X42960Y679450D02*
X46460Y679450D01*
X78960Y679450D02*
X75460Y679450D01*
X53120Y921080D02*
X53120Y867080D01*
X89120Y921080D02*
X89120Y867080D01*
X56620Y921080D02*
X53120Y921080D01*
X85620Y921080D02*
X89120Y921080D01*
X53120Y867080D02*
X56620Y867080D01*
X89120Y867080D02*
X85620Y867080D01*
X136240Y947040D02*
X148240Y947040D01*
X136240Y963040D02*
X148240Y963040D01*
X136240Y963040D02*
X148240Y963040D01*
G54D13*
X207348Y701763D02*
G75*
D01*
G02X207348Y701763I2500J0*
G01*
X299740Y798230D02*
G75*
D01*
G02X299740Y798230I2500J0*
G01*
X131920Y920050D02*
G75*
D01*
G02X131920Y920050I2500J0*
G01*
X350760Y868110D02*
G75*
D01*
G02X350760Y868110I2500J0*
G01*
G54D14*
X195598Y675763D02*
G75*
D01*
G02X195598Y675763I1250J0*
G01*
X314490Y824980D02*
G75*
D01*
G02X314490Y824980I1250J0*
G01*
X202400Y744740D02*
G75*
D01*
G02X202400Y744740I1250J0*
G01*
X100910Y846120D02*
G75*
D01*
G02X100910Y846120I1250J0*
G01*
X103730Y930980D02*
G75*
D01*
G02X103730Y930980I1250J0*
G01*
X381450Y857180D02*
G75*
D01*
G02X381450Y857180I1250J0*
G01*
X59710Y744950D02*
G75*
D01*
G02X59710Y744950I1250J0*
G01*
X69870Y932580D02*
G75*
D01*
G02X69870Y932580I1250J0*
G01*
G54D15*
X99813Y685105D02*
X102823Y685105D01*
X104329Y686616D01*
X104329Y691152D01*
X102823Y692664D01*
X99813Y692664D01*
X100566Y692664D02*
X100566Y685105D01*
X106586Y685105D02*
X109597Y685105D01*
X111102Y686616D01*
X111102Y687372D01*
X109597Y688884D01*
X111102Y690396D01*
X111102Y691152D01*
X109597Y692664D01*
X107339Y692664D01*
X106586Y692664D01*
X107339Y688884D02*
X109597Y688884D01*
X107339Y692664D02*
X107339Y685105D01*
X114112Y691152D02*
X115617Y692664D01*
X115617Y685105D01*
X113359Y685105D02*
X117875Y685105D01*
X120133Y691152D02*
X121638Y692664D01*
X123143Y692664D01*
X124648Y691152D01*
X124648Y686616D01*
X123143Y685105D01*
X121638Y685105D01*
X120133Y686616D01*
X120133Y691152D01*
X124648Y691152D02*
X120133Y686616D01*
X129163Y685105D02*
X129163Y688884D01*
X131421Y691152D01*
X131421Y692664D01*
X126906Y692664D01*
X126906Y691152D01*
X133679Y686616D02*
X135184Y685105D01*
X136689Y685105D01*
X138194Y686616D01*
X133679Y691152D01*
X135184Y692664D01*
X136689Y692664D01*
X138194Y691152D01*
X224273Y624145D02*
X224273Y631704D01*
X227283Y631704D01*
X228788Y630192D01*
X228788Y629436D01*
X227283Y627924D01*
X224273Y627924D01*
X225025Y627924D02*
X228788Y624145D01*
X231046Y625656D02*
X232551Y624145D01*
X234056Y624145D01*
X235561Y625656D01*
X231046Y630192D01*
X232551Y631704D01*
X234056Y631704D01*
X235561Y630192D01*
X237819Y630192D02*
X239324Y631704D01*
X240829Y631704D01*
X242334Y630192D01*
X242334Y629436D01*
X237819Y624145D01*
X242334Y624145D01*
X242334Y624900D01*
X245344Y630948D02*
X246097Y631704D01*
X247602Y631704D01*
X249107Y630192D01*
X249107Y628680D01*
X248355Y627924D01*
X249107Y627168D01*
X249107Y625656D01*
X247602Y624145D01*
X246097Y624145D01*
X245344Y624900D01*
X246097Y627924D02*
X248355Y627924D01*
X251365Y630192D02*
X252870Y631704D01*
X254375Y631704D01*
X255880Y630192D01*
X255880Y629436D01*
X251365Y624145D01*
X255880Y624145D01*
X255880Y624900D01*
X357200Y719546D02*
X357200Y711986D01*
X361715Y711986D01*
X363973Y715010D02*
X368488Y715010D01*
X370746Y713498D02*
X372251Y711986D01*
X373756Y711986D01*
X375261Y713498D01*
X375261Y718034D01*
X373756Y719546D01*
X372251Y719546D01*
X370746Y718034D01*
X370746Y713498D01*
X377519Y719546D02*
X377519Y713498D01*
X379024Y711986D01*
X380529Y711986D01*
X382035Y713498D01*
X382035Y719546D01*
X386550Y711986D02*
X386550Y719546D01*
X384292Y719546D02*
X388808Y719546D01*
X360586Y780506D02*
X360586Y772946D01*
X365102Y772946D01*
X367359Y775970D02*
X371875Y775970D01*
X375638Y772946D02*
X377143Y772946D01*
X375638Y780506D02*
X377143Y780506D01*
X376390Y772946D02*
X376390Y780506D01*
X380906Y772946D02*
X380906Y780506D01*
X385421Y772946D01*
X385421Y780506D01*
X357200Y638266D02*
X357200Y630706D01*
X361715Y630706D01*
X363973Y633730D02*
X368488Y633730D01*
X370746Y630706D02*
X370746Y638266D01*
X373756Y638266D01*
X375261Y636754D01*
X375261Y635998D01*
X373756Y634486D01*
X370746Y634486D01*
X377519Y638266D02*
X378272Y630706D01*
X379777Y633730D01*
X381282Y630706D01*
X382035Y638266D01*
X384292Y630706D02*
X384292Y638266D01*
X387303Y638266D01*
X388808Y636754D01*
X388808Y635998D01*
X387303Y634486D01*
X384292Y634486D01*
X385045Y634486D02*
X388808Y630706D01*
X55608Y774607D02*
X54096Y776112D01*
X54096Y777617D01*
X55608Y779122D01*
X56364Y779122D01*
X61655Y774607D01*
X61655Y779122D01*
X60900Y779122D01*
X55608Y781380D02*
X54096Y782885D01*
X54096Y784390D01*
X55608Y785896D01*
X56364Y785896D01*
X61655Y781380D01*
X61655Y785896D01*
X60900Y785896D01*
X55608Y788153D02*
X54096Y789658D01*
X54096Y791163D01*
X55608Y792669D01*
X60144Y792669D01*
X61655Y791163D01*
X61655Y789658D01*
X60144Y788153D01*
X55608Y788153D01*
X55608Y792669D02*
X60144Y788153D01*
X56364Y794926D02*
X60144Y794926D01*
X61655Y796431D01*
X61655Y797937D01*
X60144Y799442D01*
X56364Y799442D01*
X60144Y799442D02*
X61655Y799442D01*
X61655Y801699D02*
X54096Y801699D01*
X54096Y806215D01*
X57876Y801699D02*
X57876Y804710D01*
X124188Y623806D02*
X122676Y625311D01*
X130235Y625311D01*
X130235Y623053D02*
X130235Y627569D01*
X124188Y629826D02*
X122676Y631331D01*
X122676Y632837D01*
X124188Y634342D01*
X124944Y634342D01*
X130235Y629826D01*
X130235Y634342D01*
X129480Y634342D01*
X122676Y636599D02*
X130235Y638857D01*
X122676Y641115D01*
G54D16*
X173567Y655320D02*
X80433Y655320D01*
X80433Y706120D02*
X173567Y706120D01*
X156633Y697653D02*
X148167Y697653D01*
X152400Y701887D02*
X152400Y693420D01*
X150283Y659553D02*
X150291Y659369D01*
X150315Y659186D01*
X150355Y659005D01*
X150411Y658829D01*
X150482Y658659D01*
X150567Y658495D01*
X150666Y658339D01*
X150779Y658193D01*
X150903Y658057D01*
X151039Y657932D01*
X151186Y657819D01*
X151342Y657720D01*
X151505Y657635D01*
X151676Y657564D01*
X151852Y657509D01*
X152032Y657469D01*
X152216Y657445D01*
X152400Y657437D01*
X152584Y657445D01*
X152768Y657469D01*
X152948Y657509D01*
X153124Y657564D01*
X153295Y657635D01*
X153458Y657720D01*
X153614Y657819D01*
X153761Y657932D01*
X153897Y658057D01*
X154021Y658193D01*
X154134Y658339D01*
X154233Y658495D01*
X154318Y658659D01*
X154389Y658829D01*
X154445Y659005D01*
X154485Y659186D01*
X154509Y659369D01*
X154517Y659553D01*
X154517Y663786D02*
X154509Y663971D01*
X154485Y664154D01*
X154445Y664334D01*
X154389Y664510D01*
X154318Y664681D01*
X154233Y664845D01*
X154134Y665000D01*
X154021Y665147D01*
X153897Y665283D01*
X153761Y665408D01*
X153614Y665520D01*
X153458Y665619D01*
X153295Y665705D01*
X153124Y665775D01*
X152948Y665831D01*
X152768Y665871D01*
X152584Y665895D01*
X152400Y665903D01*
X152216Y665895D01*
X152032Y665871D01*
X151852Y665831D01*
X151676Y665775D01*
X151505Y665705D01*
X151342Y665619D01*
X151186Y665520D01*
X151039Y665408D01*
X150903Y665283D01*
X150779Y665147D01*
X150666Y665000D01*
X150567Y664845D01*
X150482Y664681D01*
X150411Y664510D01*
X150355Y664334D01*
X150315Y664154D01*
X150291Y663971D01*
X150283Y663786D01*
X158750Y655320D02*
X158750Y646853D01*
X173567Y706120D02*
X173567Y655320D01*
X167217Y655320D02*
X167217Y706120D01*
X158750Y706120D02*
X158750Y714587D01*
X156633Y659553D02*
X156641Y659369D01*
X156665Y659186D01*
X156705Y659005D01*
X156761Y658829D01*
X156832Y658659D01*
X156917Y658495D01*
X157016Y658339D01*
X157129Y658193D01*
X157253Y658057D01*
X157389Y657932D01*
X157536Y657819D01*
X157692Y657720D01*
X157855Y657635D01*
X158026Y657564D01*
X158202Y657509D01*
X158382Y657469D01*
X158566Y657445D01*
X158750Y657437D01*
X158934Y657445D01*
X159118Y657469D01*
X159298Y657509D01*
X159474Y657564D01*
X159645Y657635D01*
X159808Y657720D01*
X159964Y657819D01*
X160111Y657932D01*
X160247Y658057D01*
X160371Y658193D01*
X160484Y658339D01*
X160583Y658495D01*
X160668Y658659D01*
X160739Y658829D01*
X160795Y659005D01*
X160835Y659186D01*
X160859Y659369D01*
X160867Y659553D01*
X160867Y661670D02*
X156633Y661670D01*
X160867Y665903D02*
X160867Y659553D01*
X154517Y663787D02*
X154517Y659553D01*
X156633Y665903D02*
X156633Y659553D01*
X95250Y655320D02*
X95250Y646853D01*
X146050Y655320D02*
X146050Y646853D01*
X107950Y655320D02*
X107950Y646853D01*
X146050Y706120D02*
X146050Y714587D01*
X148167Y659553D02*
X146050Y657437D01*
X146050Y665903D01*
X80433Y655320D02*
X80433Y706120D01*
X95250Y706120D02*
X95250Y714587D01*
X105833Y697653D02*
X97367Y697653D01*
X107950Y706120D02*
X107950Y714587D01*
X95250Y661670D02*
X95434Y661678D01*
X95618Y661702D01*
X95798Y661742D01*
X95974Y661797D01*
X96145Y661868D01*
X96308Y661953D01*
X96464Y662052D01*
X96611Y662165D01*
X96747Y662290D01*
X96871Y662426D01*
X96984Y662572D01*
X97083Y662728D01*
X97168Y662892D01*
X97239Y663062D01*
X97295Y663238D01*
X97335Y663419D01*
X97359Y663602D01*
X97367Y663786D01*
X95250Y661670D02*
X95066Y661662D01*
X94882Y661638D01*
X94702Y661598D01*
X94526Y661542D01*
X94355Y661472D01*
X94192Y661386D01*
X94036Y661287D01*
X93889Y661175D01*
X93753Y661050D01*
X93629Y660914D01*
X93516Y660767D01*
X93417Y660612D01*
X93332Y660448D01*
X93261Y660277D01*
X93205Y660101D01*
X93165Y659921D01*
X93141Y659738D01*
X93133Y659553D01*
X93141Y659369D01*
X93165Y659186D01*
X93205Y659005D01*
X93261Y658829D01*
X93332Y658659D01*
X93417Y658495D01*
X93516Y658339D01*
X93629Y658193D01*
X93753Y658057D01*
X93889Y657932D01*
X94036Y657819D01*
X94192Y657720D01*
X94355Y657635D01*
X94526Y657564D01*
X94702Y657509D01*
X94882Y657469D01*
X95066Y657445D01*
X95250Y657437D01*
X95434Y657445D01*
X95618Y657469D01*
X95798Y657509D01*
X95974Y657564D01*
X96145Y657635D01*
X96308Y657720D01*
X96464Y657819D01*
X96611Y657932D01*
X96747Y658057D01*
X96871Y658193D01*
X96984Y658339D01*
X97083Y658495D01*
X97168Y658659D01*
X97239Y658829D01*
X97295Y659005D01*
X97335Y659186D01*
X97359Y659369D01*
X97367Y659553D01*
X93133Y665903D02*
X97367Y665903D01*
X105833Y659553D02*
X105841Y659369D01*
X105865Y659186D01*
X105905Y659005D01*
X105961Y658829D01*
X106032Y658659D01*
X106117Y658495D01*
X106216Y658339D01*
X106329Y658193D01*
X106453Y658057D01*
X106589Y657932D01*
X106736Y657819D01*
X106892Y657720D01*
X107055Y657635D01*
X107226Y657564D01*
X107402Y657509D01*
X107582Y657469D01*
X107766Y657445D01*
X107950Y657437D01*
X108134Y657445D01*
X108318Y657469D01*
X108498Y657509D01*
X108674Y657564D01*
X108845Y657635D01*
X109008Y657720D01*
X109164Y657819D01*
X109311Y657932D01*
X109447Y658057D01*
X109571Y658193D01*
X109684Y658339D01*
X109783Y658495D01*
X109868Y658659D01*
X109939Y658829D01*
X109995Y659005D01*
X110035Y659186D01*
X110059Y659369D01*
X110067Y659553D01*
X99483Y659553D02*
X99491Y659369D01*
X99515Y659186D01*
X99555Y659005D01*
X99611Y658829D01*
X99682Y658659D01*
X99767Y658495D01*
X99866Y658339D01*
X99979Y658193D01*
X100103Y658057D01*
X100239Y657932D01*
X100386Y657819D01*
X100542Y657720D01*
X100705Y657635D01*
X100876Y657564D01*
X101052Y657509D01*
X101232Y657469D01*
X101416Y657445D01*
X101600Y657437D01*
X101784Y657445D01*
X101968Y657469D01*
X102148Y657509D01*
X102324Y657564D01*
X102495Y657635D01*
X102658Y657720D01*
X102814Y657819D01*
X102961Y657932D01*
X103097Y658057D01*
X103221Y658193D01*
X103334Y658339D01*
X103433Y658495D01*
X103518Y658659D01*
X103589Y658829D01*
X103645Y659005D01*
X103685Y659186D01*
X103709Y659369D01*
X103717Y659553D01*
X110067Y665903D02*
X110067Y659553D01*
X110067Y661670D02*
X105833Y661670D01*
X103717Y663786D02*
X103709Y663971D01*
X103685Y664154D01*
X103645Y664334D01*
X103589Y664510D01*
X103518Y664681D01*
X103433Y664845D01*
X103334Y665000D01*
X103221Y665147D01*
X103097Y665283D01*
X102961Y665408D01*
X102814Y665520D01*
X102658Y665619D01*
X102495Y665705D01*
X102324Y665775D01*
X102148Y665831D01*
X101968Y665871D01*
X101784Y665895D01*
X101600Y665903D01*
X101416Y665895D01*
X101232Y665871D01*
X101052Y665831D01*
X100876Y665775D01*
X100705Y665705D01*
X100542Y665619D01*
X100386Y665520D01*
X100239Y665408D01*
X100103Y665283D01*
X99979Y665147D01*
X99866Y665000D01*
X99767Y664845D01*
X99682Y664681D01*
X99611Y664510D01*
X99555Y664334D01*
X99515Y664154D01*
X99491Y663971D01*
X99483Y663786D01*
X103717Y663787D02*
X103717Y659553D01*
X105833Y665903D02*
X105833Y659553D01*
X97367Y665903D02*
X97367Y663787D01*
X171900Y744740D02*
X177150Y744740D01*
X171900Y809740D02*
X177150Y809740D01*
X177150Y744740D02*
X177150Y809740D01*
X342900Y617220D02*
X342900Y642620D01*
X266700Y617220D02*
X266700Y642620D01*
X266700Y617220D02*
X317500Y617220D01*
X323850Y617220D02*
X342900Y617220D01*
X319617Y617220D02*
X319617Y625687D01*
X321733Y619337D02*
X319617Y617220D01*
X266700Y642620D02*
X342900Y642620D01*
X390284Y759498D02*
X389110Y760923D01*
X387816Y762240D01*
X386411Y763440D01*
X384908Y764512D01*
X383317Y765449D01*
X381650Y766244D01*
X379921Y766891D01*
X378141Y767384D01*
X376326Y767721D01*
X374488Y767898D01*
X372641Y767914D01*
X370800Y767769D01*
X368979Y767464D01*
X367191Y767002D01*
X365451Y766385D01*
X363771Y765620D01*
X362163Y764710D01*
X360642Y763664D01*
X359217Y762490D01*
X357900Y761196D01*
X356700Y759791D01*
X355628Y758288D01*
X354691Y756697D01*
X353896Y755030D01*
X353249Y753301D01*
X352756Y751521D01*
X352419Y749706D01*
X352242Y747868D01*
X352226Y746021D01*
X352371Y744180D01*
X352676Y742359D01*
X353138Y740571D01*
X353755Y738831D01*
X354520Y737151D01*
X355430Y735543D01*
X356476Y734022D01*
X357650Y732597D01*
X358944Y731280D01*
X360349Y730080D01*
X361852Y729008D01*
X363443Y728071D01*
X365110Y727276D01*
X366839Y726629D01*
X368619Y726136D01*
X370434Y725799D01*
X372272Y725622D01*
X374119Y725606D01*
X375960Y725751D01*
X377781Y726056D01*
X379569Y726518D01*
X381309Y727135D01*
X382989Y727900D01*
X384597Y728810D01*
X386118Y729856D01*
X387543Y731030D01*
X388860Y732324D01*
X389110Y732597D01*
X386161Y755060D02*
X385389Y756143D01*
X384526Y757154D01*
X383578Y758086D01*
X382552Y758931D01*
X381456Y759684D01*
X380299Y760339D01*
X379089Y760890D01*
X377836Y761334D01*
X376549Y761667D01*
X375237Y761886D01*
X373912Y761991D01*
X372582Y761979D01*
X371259Y761852D01*
X369952Y761609D01*
X368671Y761254D01*
X367425Y760788D01*
X366225Y760216D01*
X365080Y759541D01*
X363997Y758769D01*
X362986Y757906D01*
X362054Y756958D01*
X361209Y755932D01*
X360745Y755282D01*
X360599Y738460D02*
X361371Y737377D01*
X362234Y736366D01*
X363182Y735434D01*
X364208Y734589D01*
X365304Y733836D01*
X366461Y733181D01*
X367671Y732630D01*
X368924Y732186D01*
X370211Y731853D01*
X371523Y731634D01*
X372848Y731529D01*
X374178Y731541D01*
X375501Y731668D01*
X376808Y731911D01*
X378089Y732266D01*
X379335Y732732D01*
X380535Y733304D01*
X381680Y733979D01*
X382763Y734751D01*
X383774Y735614D01*
X384706Y736562D01*
X385551Y737588D01*
X386015Y738238D01*
X396664Y757343D02*
X396656Y757527D01*
X396632Y757711D01*
X396592Y757891D01*
X396536Y758067D01*
X396465Y758238D01*
X396380Y758401D01*
X396281Y758557D01*
X396168Y758704D01*
X396044Y758840D01*
X395908Y758964D01*
X395761Y759077D01*
X395605Y759176D01*
X395442Y759261D01*
X395271Y759332D01*
X395095Y759388D01*
X394915Y759428D01*
X394731Y759452D01*
X394547Y759460D01*
X394363Y759452D01*
X394179Y759428D01*
X393999Y759388D01*
X393823Y759332D01*
X393652Y759261D01*
X393489Y759176D01*
X393333Y759077D01*
X393186Y758964D01*
X393050Y758840D01*
X392926Y758704D01*
X392813Y758557D01*
X392714Y758401D01*
X392629Y758238D01*
X392558Y758067D01*
X392502Y757891D01*
X392462Y757711D01*
X392438Y757527D01*
X392430Y757343D01*
X392430Y757343D01*
X396663Y757343D02*
X396663Y753110D01*
X390313Y755227D02*
X390313Y759460D01*
X392430Y753110D02*
X392438Y752926D01*
X392462Y752742D01*
X392502Y752562D01*
X392558Y752386D01*
X392629Y752215D01*
X392714Y752052D01*
X392813Y751896D01*
X392926Y751749D01*
X393050Y751613D01*
X393186Y751489D01*
X393333Y751376D01*
X393489Y751277D01*
X393652Y751192D01*
X393823Y751121D01*
X393999Y751065D01*
X394179Y751025D01*
X394363Y751001D01*
X394547Y750993D01*
X394731Y751001D01*
X394915Y751025D01*
X395095Y751065D01*
X395271Y751121D01*
X395442Y751192D01*
X395605Y751277D01*
X395761Y751376D01*
X395908Y751489D01*
X396044Y751613D01*
X396168Y751749D01*
X396281Y751896D01*
X396380Y752052D01*
X396465Y752215D01*
X396536Y752386D01*
X396592Y752562D01*
X396632Y752742D01*
X396656Y752926D01*
X396664Y753110D01*
X390313Y738293D02*
X390313Y734060D01*
X390284Y820458D02*
X389110Y821883D01*
X387816Y823200D01*
X386411Y824400D01*
X384908Y825472D01*
X383317Y826409D01*
X381650Y827204D01*
X379921Y827851D01*
X378141Y828344D01*
X376326Y828681D01*
X374488Y828858D01*
X372641Y828874D01*
X370800Y828729D01*
X368979Y828424D01*
X367191Y827962D01*
X365451Y827345D01*
X363771Y826580D01*
X362163Y825670D01*
X360642Y824624D01*
X359217Y823450D01*
X357900Y822156D01*
X356700Y820751D01*
X355628Y819248D01*
X354691Y817657D01*
X353896Y815990D01*
X353249Y814261D01*
X352756Y812481D01*
X352419Y810666D01*
X352242Y808828D01*
X352226Y806981D01*
X352371Y805140D01*
X352676Y803319D01*
X353138Y801531D01*
X353755Y799791D01*
X354520Y798111D01*
X355430Y796503D01*
X356476Y794982D01*
X357650Y793557D01*
X358944Y792240D01*
X360349Y791040D01*
X361852Y789968D01*
X363443Y789031D01*
X365110Y788236D01*
X366839Y787589D01*
X368619Y787096D01*
X370434Y786759D01*
X372272Y786582D01*
X374119Y786566D01*
X375960Y786711D01*
X377781Y787016D01*
X379569Y787478D01*
X381309Y788095D01*
X382989Y788860D01*
X384597Y789770D01*
X386118Y790816D01*
X387543Y791990D01*
X388860Y793284D01*
X389110Y793557D01*
X360599Y799420D02*
X361371Y798337D01*
X362234Y797326D01*
X363182Y796394D01*
X364208Y795549D01*
X365304Y794796D01*
X366461Y794141D01*
X367671Y793590D01*
X368924Y793146D01*
X370211Y792813D01*
X371523Y792594D01*
X372848Y792489D01*
X374178Y792501D01*
X375501Y792628D01*
X376808Y792871D01*
X378089Y793226D01*
X379335Y793692D01*
X380535Y794264D01*
X381680Y794939D01*
X382763Y795711D01*
X383774Y796574D01*
X384706Y797522D01*
X385551Y798548D01*
X386015Y799198D01*
X386161Y816020D02*
X385389Y817103D01*
X384526Y818114D01*
X383578Y819046D01*
X382552Y819891D01*
X381456Y820644D01*
X380299Y821299D01*
X379089Y821850D01*
X377836Y822294D01*
X376549Y822627D01*
X375237Y822846D01*
X373912Y822951D01*
X372582Y822939D01*
X371259Y822812D01*
X369952Y822569D01*
X368671Y822214D01*
X367425Y821748D01*
X366225Y821176D01*
X365080Y820501D01*
X363997Y819729D01*
X362986Y818866D01*
X362054Y817918D01*
X361209Y816892D01*
X360745Y816242D01*
X390313Y816187D02*
X390313Y820420D01*
X396663Y818303D02*
X396663Y814070D01*
X396664Y818303D02*
X396656Y818487D01*
X396632Y818671D01*
X396592Y818851D01*
X396536Y819027D01*
X396465Y819198D01*
X396380Y819361D01*
X396281Y819517D01*
X396168Y819664D01*
X396044Y819800D01*
X395908Y819924D01*
X395761Y820037D01*
X395605Y820136D01*
X395442Y820221D01*
X395271Y820292D01*
X395095Y820348D01*
X394915Y820388D01*
X394731Y820412D01*
X394547Y820420D01*
X394363Y820412D01*
X394179Y820388D01*
X393999Y820348D01*
X393823Y820292D01*
X393652Y820221D01*
X393489Y820136D01*
X393333Y820037D01*
X393186Y819924D01*
X393050Y819800D01*
X392926Y819664D01*
X392813Y819517D01*
X392714Y819361D01*
X392629Y819198D01*
X392558Y819027D01*
X392502Y818851D01*
X392462Y818671D01*
X392438Y818487D01*
X392430Y818303D01*
X392430Y818303D01*
X392430Y814070D02*
X392438Y813886D01*
X392462Y813702D01*
X392502Y813522D01*
X392558Y813346D01*
X392629Y813175D01*
X392714Y813012D01*
X392813Y812856D01*
X392926Y812709D01*
X393050Y812573D01*
X393186Y812449D01*
X393333Y812336D01*
X393489Y812237D01*
X393652Y812152D01*
X393823Y812081D01*
X393999Y812025D01*
X394179Y811985D01*
X394363Y811961D01*
X394547Y811953D01*
X394731Y811961D01*
X394915Y811985D01*
X395095Y812025D01*
X395271Y812081D01*
X395442Y812152D01*
X395605Y812237D01*
X395761Y812336D01*
X395908Y812449D01*
X396044Y812573D01*
X396168Y812709D01*
X396281Y812856D01*
X396380Y813012D01*
X396465Y813175D01*
X396536Y813346D01*
X396592Y813522D01*
X396632Y813702D01*
X396656Y813886D01*
X396664Y814070D01*
X390313Y799253D02*
X390313Y795020D01*
X390284Y678218D02*
X389110Y679643D01*
X387816Y680960D01*
X386411Y682160D01*
X384908Y683232D01*
X383317Y684169D01*
X381650Y684964D01*
X379921Y685611D01*
X378141Y686104D01*
X376326Y686441D01*
X374488Y686618D01*
X372641Y686634D01*
X370800Y686489D01*
X368979Y686184D01*
X367191Y685722D01*
X365451Y685105D01*
X363771Y684340D01*
X362163Y683430D01*
X360642Y682384D01*
X359217Y681210D01*
X357900Y679916D01*
X356700Y678511D01*
X355628Y677008D01*
X354691Y675417D01*
X353896Y673750D01*
X353249Y672021D01*
X352756Y670241D01*
X352419Y668426D01*
X352242Y666588D01*
X352226Y664741D01*
X352371Y662900D01*
X352676Y661079D01*
X353138Y659291D01*
X353755Y657551D01*
X354520Y655871D01*
X355430Y654263D01*
X356476Y652742D01*
X357650Y651317D01*
X358944Y650000D01*
X360349Y648800D01*
X361852Y647728D01*
X363443Y646791D01*
X365110Y645996D01*
X366839Y645349D01*
X368619Y644856D01*
X370434Y644519D01*
X372272Y644342D01*
X374119Y644326D01*
X375960Y644471D01*
X377781Y644776D01*
X379569Y645238D01*
X381309Y645855D01*
X382989Y646620D01*
X384597Y647530D01*
X386118Y648576D01*
X387543Y649750D01*
X388860Y651044D01*
X389110Y651317D01*
X360599Y657180D02*
X361371Y656097D01*
X362234Y655086D01*
X363182Y654154D01*
X364208Y653309D01*
X365304Y652556D01*
X366461Y651901D01*
X367671Y651350D01*
X368924Y650906D01*
X370211Y650573D01*
X371523Y650354D01*
X372848Y650249D01*
X374178Y650261D01*
X375501Y650388D01*
X376808Y650631D01*
X378089Y650986D01*
X379335Y651452D01*
X380535Y652024D01*
X381680Y652699D01*
X382763Y653471D01*
X383774Y654334D01*
X384706Y655282D01*
X385551Y656308D01*
X386015Y656958D01*
X386161Y673780D02*
X385389Y674863D01*
X384526Y675874D01*
X383578Y676806D01*
X382552Y677651D01*
X381456Y678404D01*
X380299Y679059D01*
X379089Y679610D01*
X377836Y680054D01*
X376549Y680387D01*
X375237Y680606D01*
X373912Y680711D01*
X372582Y680699D01*
X371259Y680572D01*
X369952Y680329D01*
X368671Y679974D01*
X367425Y679508D01*
X366225Y678936D01*
X365080Y678261D01*
X363997Y677489D01*
X362986Y676626D01*
X362054Y675678D01*
X361209Y674652D01*
X360745Y674002D01*
X390313Y673947D02*
X390313Y678180D01*
X396663Y676063D02*
X396663Y671830D01*
X396664Y676063D02*
X396656Y676247D01*
X396632Y676431D01*
X396592Y676611D01*
X396536Y676787D01*
X396465Y676958D01*
X396380Y677121D01*
X396281Y677277D01*
X396168Y677424D01*
X396044Y677560D01*
X395908Y677684D01*
X395761Y677797D01*
X395605Y677896D01*
X395442Y677981D01*
X395271Y678052D01*
X395095Y678108D01*
X394915Y678148D01*
X394731Y678172D01*
X394547Y678180D01*
X394363Y678172D01*
X394179Y678148D01*
X393999Y678108D01*
X393823Y678052D01*
X393652Y677981D01*
X393489Y677896D01*
X393333Y677797D01*
X393186Y677684D01*
X393050Y677560D01*
X392926Y677424D01*
X392813Y677277D01*
X392714Y677121D01*
X392629Y676958D01*
X392558Y676787D01*
X392502Y676611D01*
X392462Y676431D01*
X392438Y676247D01*
X392430Y676063D01*
X392430Y676063D01*
X392430Y671830D02*
X392438Y671646D01*
X392462Y671462D01*
X392502Y671282D01*
X392558Y671106D01*
X392629Y670935D01*
X392714Y670772D01*
X392813Y670616D01*
X392926Y670469D01*
X393050Y670333D01*
X393186Y670209D01*
X393333Y670096D01*
X393489Y669997D01*
X393652Y669912D01*
X393823Y669841D01*
X393999Y669785D01*
X394179Y669745D01*
X394363Y669721D01*
X394547Y669713D01*
X394731Y669721D01*
X394915Y669745D01*
X395095Y669785D01*
X395271Y669841D01*
X395442Y669912D01*
X395605Y669997D01*
X395761Y670096D01*
X395908Y670209D01*
X396044Y670333D01*
X396168Y670469D01*
X396281Y670616D01*
X396380Y670772D01*
X396465Y670935D01*
X396536Y671106D01*
X396592Y671282D01*
X396632Y671462D01*
X396656Y671646D01*
X396664Y671830D01*
X390313Y657013D02*
X390313Y652780D01*
X306211Y953316D02*
X309033Y951805D01*
X311856Y951805D01*
X314678Y953316D01*
X314678Y959364D01*
X320322Y957852D02*
X323144Y959364D01*
X323144Y951805D01*
X318911Y951805D02*
X327378Y951805D01*
X297180Y942340D02*
X195580Y942340D01*
X297180Y967740D02*
X220980Y967740D01*
X195580Y967740D02*
X195580Y942340D01*
X214630Y967740D02*
X195580Y967740D01*
X218863Y967740D02*
X218863Y959273D01*
X216747Y965623D02*
X218863Y967740D01*
X297180Y967740D02*
X297180Y942340D01*
X47837Y848360D02*
X47837Y742527D01*
X94403Y742527D02*
X94403Y848360D01*
X64770Y746760D02*
X77470Y746760D01*
X77470Y742527D02*
X94403Y742527D01*
X77470Y746760D02*
X77470Y742527D01*
X47837Y742527D02*
X64770Y742527D01*
X64770Y746760D01*
X71120Y802640D02*
X71120Y806450D01*
X78740Y792480D02*
X63500Y792480D01*
X63500Y800100D02*
X78740Y800100D01*
X63500Y796290D02*
X78740Y796290D01*
X63500Y801370D02*
X78740Y801370D01*
X78740Y802640D02*
X63500Y802640D01*
X71120Y792480D02*
X71120Y788670D01*
X94403Y848360D02*
X47837Y848360D01*
X78740Y796290D02*
X78740Y792480D01*
X63500Y796290D02*
X63500Y792480D01*
X48260Y617220D02*
X48260Y668020D01*
X73660Y648970D02*
X73660Y668020D01*
X48260Y668020D01*
X73660Y617220D02*
X73660Y640503D01*
X73660Y644737D02*
X65193Y644737D01*
X71543Y646853D02*
X73660Y644737D01*
X73660Y617220D02*
X48260Y617220D01*
G54D17*
X30463Y607052D02*
X30463Y643885D01*
X30463Y607052D02*
X68058Y607052D01*
X406408Y607052D02*
X368813Y607052D01*
X406408Y607052D02*
X406408Y643885D01*
X406408Y975377D02*
X406408Y938545D01*
X406408Y975377D02*
X368813Y975377D01*
X30463Y975377D02*
X68058Y975377D01*
X30463Y975377D02*
X30463Y938545D01*
X-19537Y607052D02*
X-119537Y607052D01*
X-69537Y557052D02*
X-69537Y657052D01*
X-107037Y607052D02*
G75*
D01*
G02X-107037Y607052I37500J0*
G01*
X456408Y607052D02*
X556408Y607052D01*
X506408Y557052D02*
X506408Y657052D01*
X468908Y607052D02*
G75*
D01*
G02X468908Y607052I37500J0*
G01*
X493908Y607052D02*
G75*
D01*
G02X493908Y607052I12500J0*
G01*
X-19537Y975377D02*
X-119537Y975377D01*
X-69537Y925377D02*
X-69537Y1025377D01*
X-107037Y975377D02*
G75*
D01*
G02X-107037Y975377I37500J0*
G01*
X-94537Y975377D02*
G75*
D01*
G02X-94537Y975377I25000J0*
G01*
X-82037Y975377D02*
G75*
D01*
G02X-82037Y975377I12500J0*
G01*

M02*
