G04 Generated by Ultiboard 13.0 *
%FSLAX34Y34*%
%MOMM*%

%ADD10C,0.0001*%
%ADD11C,0.2540*%
%ADD12C,0.1270*%
%ADD13R,0.6000X1.5500*%
%ADD14R,1.1852X1.9472*%
%ADD15C,0.5928*%
%ADD16R,1.1500X1.4500*%
%ADD17R,1.4500X1.1500*%
%ADD18R,0.6000X1.6000*%
%ADD19R,2.5500X0.9000*%
%ADD20R,7.0000X5.3000*%
%ADD21R,1.8000X1.0500*%
%ADD22R,3.0000X1.6000*%
%ADD23R,0.5291X0.5291*%
%ADD24C,0.9949*%
%ADD25C,1.6088*%
%ADD26C,1.2700*%
%ADD27R,1.0500X1.8000*%
%ADD28O,2.2000X1.3000*%
%ADD29R,3.0053X0.9101*%
%ADD30R,2.1500X2.2500*%


G04 ColorRGB 00FF00 for the following layer *
%LNCopper Top*%
%LPD*%
G54D10*
G54D11*
X204898Y733257D02*
X204898Y735797D01*
X203200Y734099D01*
X203200Y723200D01*
X205040Y680621D02*
X205040Y664800D01*
X205040Y680621D02*
X204898Y680763D01*
X205040Y664800D02*
X209440Y660400D01*
X230298Y680763D02*
X230298Y675000D01*
X230080Y675000D02*
X230080Y663040D01*
X230298Y675000D02*
X230080Y675000D01*
X230080Y663040D02*
X227440Y660400D01*
X245080Y678681D02*
X245080Y660480D01*
X245080Y678681D02*
X242998Y680763D01*
X260080Y663320D02*
X260080Y676381D01*
X255698Y680763D01*
X263000Y660400D02*
X260080Y663320D01*
X217598Y680763D02*
X217500Y680763D01*
X217500Y697500D01*
X210000Y705000D01*
X191250Y705000D01*
X187500Y701250D01*
X187500Y679560D01*
X187960Y679560D01*
X292500Y757500D02*
X292500Y734763D01*
X293798Y734763D01*
X294640Y759640D02*
X292500Y757500D01*
X294640Y765480D02*
X294640Y759640D01*
X282580Y736246D02*
X282580Y741170D01*
X282580Y736246D02*
X281098Y734763D01*
X282580Y741170D02*
X273750Y750000D01*
X263830Y750000D01*
X255000Y758830D01*
X255000Y765480D01*
X256540Y765480D01*
X215900Y739140D02*
X218440Y736600D01*
X208280Y774700D02*
X218440Y764540D01*
X218440Y736600D01*
X152400Y729403D02*
X129540Y706543D01*
X129117Y706120D02*
X83820Y706120D01*
X61147Y728793D02*
X83820Y706120D01*
X60960Y684450D02*
X62150Y683260D01*
X88900Y683260D01*
X60365Y683855D02*
X60539Y683681D01*
X231140Y819480D02*
X229082Y821538D01*
X229082Y826618D02*
X229082Y821538D01*
X208280Y818120D02*
X215900Y810500D01*
X215900Y789940D02*
X215900Y810500D01*
X215900Y789940D02*
X208280Y782320D01*
X208280Y774700D02*
X208280Y782320D01*
X292500Y645000D02*
X292500Y675000D01*
X293798Y676298D01*
X293798Y680763D01*
X300000Y637500D02*
X292500Y645000D01*
X300000Y634720D02*
X300000Y637500D01*
X304800Y629920D02*
X300000Y634720D01*
X281098Y680763D02*
X281098Y675000D01*
X280040Y674256D02*
X280784Y675000D01*
X281098Y675000D02*
X280784Y675000D01*
X280040Y674256D02*
X280040Y630560D01*
X279400Y629920D01*
X270000Y697500D02*
X270000Y680763D01*
X268398Y680763D01*
X277500Y705000D02*
X270000Y697500D01*
X296250Y705000D02*
X277500Y705000D01*
X303750Y697500D02*
X296250Y705000D01*
X309880Y697500D02*
X303750Y697500D01*
X309880Y694800D02*
X309880Y697500D01*
X296436Y716280D02*
X307340Y727184D01*
X243840Y813660D02*
X243840Y819480D01*
X244960Y797540D02*
X244960Y812540D01*
X243840Y813660D01*
X255000Y787500D02*
X244960Y797540D01*
X262500Y787500D02*
X255000Y787500D01*
X267460Y782540D02*
X262500Y787500D01*
X267460Y767260D02*
X267460Y782540D01*
X267460Y767260D02*
X269240Y765480D01*
X269240Y819480D02*
X270000Y819480D01*
X269240Y810000D01*
X258164Y810000D01*
X257420Y810744D02*
X258164Y810000D01*
X257420Y810744D02*
X257420Y818600D01*
X256540Y819480D01*
X132776Y851596D02*
X114427Y833247D01*
X184216Y851596D02*
X132776Y851596D01*
X307340Y810500D02*
X307340Y819480D01*
X360680Y746760D02*
X356420Y742500D01*
X330200Y742500D01*
X330200Y741920D01*
X281940Y834916D02*
X281196Y835660D01*
X281940Y819480D02*
X281940Y834916D01*
X360680Y807720D02*
X354780Y807720D01*
X352500Y810000D01*
X352500Y835980D01*
X345200Y843280D01*
X386080Y746760D02*
X358140Y718820D01*
X358140Y689364D02*
X358140Y718820D01*
X360680Y665480D02*
X354520Y665480D01*
X352500Y667500D01*
X335280Y667500D01*
X337180Y667620D02*
X335280Y665720D01*
X335280Y667500D02*
X335280Y665720D01*
X233680Y947420D02*
X233680Y956310D01*
X208280Y848120D02*
X202500Y848120D01*
X202500Y868680D01*
X201480Y868680D01*
X179070Y939800D02*
X226060Y939800D01*
X133350Y894080D02*
X179070Y939800D01*
X226060Y939800D02*
X233680Y947420D01*
X149860Y851248D02*
X149860Y874108D01*
X201480Y894080D02*
X169832Y894080D01*
X149860Y874108D01*
X208280Y818120D02*
X226060Y835900D01*
X312420Y868680D02*
X312420Y873760D01*
X332740Y894080D02*
X375920Y894080D01*
X292100Y848360D02*
X312420Y868680D01*
X312420Y873760D02*
X332740Y894080D01*
X233680Y853440D02*
X269240Y853440D01*
X226060Y845820D02*
X233680Y853440D01*
X226060Y835900D02*
X226060Y845820D01*
X269240Y853440D02*
X274320Y848360D01*
X292100Y848360D01*
X330000Y862500D02*
X330000Y817640D01*
X330200Y817640D01*
X337500Y870000D02*
X330000Y862500D01*
X360000Y870000D02*
X337500Y870000D01*
X374200Y868680D02*
X361320Y868680D01*
X360000Y870000D01*
X286200Y894080D02*
X298420Y894080D01*
X300000Y892500D01*
X307500Y892500D01*
X315000Y900000D01*
X315000Y929880D01*
X304960Y939920D01*
X290080Y939920D01*
X284480Y945520D01*
X284480Y955040D01*
X251700Y835660D02*
X281196Y835660D01*
X248920Y838440D02*
X251700Y835660D01*
X253440Y838440D02*
X248920Y838440D01*
X255000Y840000D02*
X253440Y838440D01*
X282580Y833590D02*
X282580Y822960D01*
X282580Y833590D02*
X288870Y839880D01*
X311800Y839880D01*
X315200Y843280D01*
X264160Y886460D02*
X281940Y868680D01*
X248920Y889240D02*
X251700Y886460D01*
X281940Y868680D02*
X286610Y868680D01*
X251700Y886460D02*
X264160Y886460D01*
X246410Y867340D02*
X224880Y888870D01*
X247820Y867340D02*
X248920Y868440D01*
X247480Y869880D01*
X247820Y867340D02*
X246410Y867340D01*
X248920Y870980D02*
X248920Y868440D01*
X224880Y888870D02*
X224880Y914256D01*
X219056Y920080D01*
X202080Y920080D01*
X201480Y919480D01*
X249760Y920080D02*
X248920Y919240D01*
X249760Y920080D02*
X285600Y920080D01*
X255000Y922500D02*
X255000Y945000D01*
X248920Y919240D02*
X248920Y922500D01*
X285600Y920080D02*
X286200Y919480D01*
X255000Y945000D02*
X259080Y949080D01*
X259080Y955040D01*
X322500Y795000D02*
X322500Y787640D01*
X330200Y787640D01*
X330200Y787500D01*
X341250Y787500D01*
X307380Y810120D02*
X322500Y795000D01*
X341250Y787500D02*
X345000Y783750D01*
X307380Y808251D02*
X282460Y783331D01*
X307500Y819480D02*
X307500Y810000D01*
X307380Y808251D02*
X307380Y819480D01*
X307380Y817500D02*
X307380Y810120D01*
X345000Y783750D02*
X345000Y776250D01*
X282460Y783331D02*
X282460Y769960D01*
X307340Y819480D02*
X307500Y819480D01*
X307340Y819480D02*
X307340Y817500D01*
X307380Y817500D01*
X345000Y776250D02*
X341250Y772500D01*
X281940Y769440D02*
X281940Y765480D01*
X282460Y769960D02*
X281940Y769440D01*
X341250Y772500D02*
X330200Y772500D01*
X330200Y771920D01*
X172500Y735000D02*
X187620Y750120D01*
X187620Y753496D01*
X188364Y754240D01*
X193400Y754240D01*
X152400Y735000D02*
X172500Y735000D01*
X152400Y729403D02*
X152400Y735000D01*
X156428Y725376D02*
X152400Y729403D01*
X156428Y725376D02*
X156428Y726428D01*
X60960Y720000D02*
X60960Y728450D01*
X52510Y720000D01*
X60960Y728450D02*
X67500Y728450D01*
X52510Y720000D02*
X52500Y720000D01*
X67500Y728450D02*
X67500Y761577D01*
X71120Y761577D01*
X186090Y722820D02*
X203200Y722820D01*
X199960Y722820D01*
X203200Y723200D02*
X203390Y723010D01*
X208470Y723010D02*
X203390Y723010D01*
X186090Y722820D02*
X156816Y693546D01*
X208470Y723010D02*
X215200Y716280D01*
X156816Y693546D02*
X156816Y682500D01*
X215200Y716280D02*
X296436Y716280D01*
X156816Y682500D02*
X90000Y682500D01*
X156816Y682500D02*
X157500Y682500D01*
X157500Y675000D01*
X165000Y667500D01*
X307380Y726440D02*
X314880Y718940D01*
X307380Y726440D02*
X307380Y765480D01*
X60960Y684450D02*
X52500Y684450D01*
X165000Y667500D02*
X182020Y667500D01*
X314880Y718940D02*
X314880Y716024D01*
X52500Y684450D02*
X52500Y697500D01*
X182020Y667500D02*
X187960Y661560D01*
X314880Y716024D02*
X333404Y697500D01*
X52500Y697500D02*
X45000Y705000D01*
X335280Y697500D02*
X335280Y695720D01*
X333404Y697500D02*
X335280Y697500D01*
X45000Y705000D02*
X45000Y846050D01*
X51650Y852700D01*
X91056Y852700D01*
X110636Y833120D01*
X114660Y833120D01*
X114800Y834800D02*
X114800Y833260D01*
X114660Y833120D01*
X184960Y850852D02*
X184216Y851596D01*
X184960Y850852D02*
X184960Y800984D01*
X185704Y800240D01*
X193400Y800240D01*
X207580Y780000D02*
X133400Y780000D01*
X133400Y777240D01*
X133400Y780000D01*
X133400Y777240D02*
X133400Y802500D01*
X133400Y777240D02*
X133400Y780000D01*
X133400Y777240D02*
X133400Y795000D01*
X157500Y777240D02*
X157500Y833120D01*
X150000Y780000D02*
X150000Y777240D01*
X102580Y757500D02*
X102580Y730383D01*
X150000Y777240D02*
X133400Y777240D01*
X157500Y777240D01*
X133400Y777240D02*
X127500Y777240D01*
X97500Y802500D02*
X69680Y830320D01*
X133400Y802500D02*
X97500Y802500D01*
X157500Y833120D02*
X159660Y833120D01*
X231140Y817500D02*
X208280Y817500D01*
X208280Y818120D01*
X102580Y730383D02*
X101600Y729403D01*
X69680Y830320D02*
X69680Y832103D01*
X71120Y833543D01*
X231140Y819480D02*
X231140Y817500D01*
X231140Y819480D02*
X231140Y823640D01*
X230455Y822912D02*
X230080Y822537D01*
X382380Y892620D02*
X375660Y892620D01*
X374200Y894080D01*
X397500Y877500D02*
X382380Y892620D01*
X397500Y858140D02*
X397500Y877500D01*
X386080Y846720D02*
X397500Y858140D01*
X386080Y846720D02*
X386080Y746760D01*
X348736Y679960D02*
X358140Y689364D01*
X348736Y679960D02*
X318284Y679960D01*
X348736Y679960D02*
X351276Y682500D01*
X375000Y682500D01*
X318284Y679960D02*
X315124Y676800D01*
X375000Y682500D02*
X386080Y671420D01*
X312220Y679960D02*
X312220Y647900D01*
X315000Y676800D02*
X309880Y676800D01*
X315124Y676800D02*
X309880Y676800D01*
X386080Y671420D02*
X386080Y665480D01*
X312220Y647900D02*
X330200Y629920D01*
X71500Y920080D02*
X121749Y920080D01*
X112500Y919480D02*
X112500Y920080D01*
X121749Y920080D02*
X122349Y919480D01*
X112500Y919480D01*
X125200Y932780D02*
X112500Y920080D01*
X71500Y920080D02*
X67500Y916080D01*
X75000Y916080D02*
X75000Y920080D01*
X72340Y917300D02*
X72340Y920920D01*
X125200Y932780D02*
X125200Y949216D01*
X67500Y920080D02*
X67500Y916080D01*
X71120Y916080D02*
X75000Y916080D01*
X71120Y916080D02*
X72340Y917300D01*
X125200Y949216D02*
X125944Y949960D01*
X127240Y950704D02*
X129934Y952346D01*
X126496Y949960D02*
X127240Y950704D01*
X125944Y949960D02*
X126496Y949960D01*
X129934Y952346D02*
X127240Y955040D01*
X88080Y894080D02*
X113480Y894080D01*
X103320Y894080D02*
X133350Y894080D01*
X88080Y894080D02*
X69126Y875126D01*
X68074Y875126D01*
X71120Y872080D01*
X152660Y634840D02*
X127380Y660120D01*
X152660Y632297D02*
X152660Y634840D01*
X152660Y632297D02*
X152400Y632037D01*
X127380Y660120D02*
X65760Y660120D01*
X60960Y655320D01*
X92063Y622500D02*
X67500Y622500D01*
X101600Y632037D02*
X92063Y622500D01*
X67500Y623380D02*
X60960Y629920D01*
X67500Y622500D02*
X67500Y623380D01*
X203200Y960120D02*
X162320Y960120D01*
X157240Y955040D01*
X203200Y960120D02*
X208280Y955040D01*
G54D12*
X30463Y607052D02*
X30463Y643885D01*
X30463Y607052D02*
X68058Y607052D01*
X406408Y607052D02*
X368813Y607052D01*
X406408Y607052D02*
X406408Y643885D01*
X406408Y975377D02*
X406408Y938545D01*
X406408Y975377D02*
X368813Y975377D01*
X30463Y975377D02*
X68058Y975377D01*
X30463Y975377D02*
X30463Y938545D01*
X-19537Y607052D02*
X-119537Y607052D01*
X-69537Y557052D02*
X-69537Y657052D01*
X-107037Y607052D02*
G75*
D01*
G02X-107037Y607052I37500J0*
G01*
X456408Y607052D02*
X556408Y607052D01*
X506408Y557052D02*
X506408Y657052D01*
X468908Y607052D02*
G75*
D01*
G02X468908Y607052I37500J0*
G01*
X493908Y607052D02*
G75*
D01*
G02X493908Y607052I12500J0*
G01*
X-19537Y975377D02*
X-119537Y975377D01*
X-69537Y925377D02*
X-69537Y1025377D01*
X-107037Y975377D02*
G75*
D01*
G02X-107037Y975377I37500J0*
G01*
X-94537Y975377D02*
G75*
D01*
G02X-94537Y975377I25000J0*
G01*
X-82037Y975377D02*
G75*
D01*
G02X-82037Y975377I12500J0*
G01*
G54D13*
X204898Y680763D03*
X217598Y680763D03*
X230298Y680763D03*
X242998Y680763D03*
X255698Y680763D03*
X268398Y680763D03*
X281098Y680763D03*
X293798Y680763D03*
X204898Y734763D03*
X217598Y734763D03*
X242998Y734763D03*
X230298Y734763D03*
X255698Y734763D03*
X281098Y734763D03*
X268398Y734763D03*
X293798Y734763D03*
G54D14*
X101600Y632037D03*
X152400Y632037D03*
X101600Y729403D03*
X152400Y729403D03*
G54D15*
X95674Y622301D02*
X107526Y622301D01*
X107526Y641773D01*
X95674Y641773D01*
X95674Y622301D01*D02*
X146474Y622301D02*
X158326Y622301D01*
X158326Y641773D01*
X146474Y641773D01*
X146474Y622301D01*D02*
X95674Y719667D02*
X107526Y719667D01*
X107526Y739139D01*
X95674Y739139D01*
X95674Y719667D01*D02*
X146474Y719667D02*
X158326Y719667D01*
X158326Y739139D01*
X146474Y739139D01*
X146474Y719667D01*D02*
X56094Y757027D02*
X86146Y757027D01*
X86146Y766127D01*
X56094Y766127D01*
X56094Y757027D01*D02*
X56094Y828993D02*
X86146Y828993D01*
X86146Y838093D01*
X56094Y838093D01*
X56094Y828993D01*D02*
G54D16*
X209440Y660400D03*
X227440Y660400D03*
X245000Y660400D03*
X263000Y660400D03*
G54D17*
X187960Y661560D03*
X187960Y679560D03*
X309880Y676800D03*
X309880Y694800D03*
G54D18*
X231140Y765480D03*
X243840Y765480D03*
X256540Y765480D03*
X269240Y765480D03*
X281940Y765480D03*
X294640Y765480D03*
X307340Y765480D03*
X231140Y819480D03*
X243840Y819480D03*
X256540Y819480D03*
X269240Y819480D03*
X281940Y819480D03*
X294640Y819480D03*
X307340Y819480D03*
G54D19*
X193400Y754240D03*
X193400Y800240D03*
G54D20*
X133400Y777240D03*
G54D21*
X208280Y818120D03*
X208280Y848120D03*
X335280Y665720D03*
X335280Y695720D03*
X330200Y741920D03*
X330200Y771920D03*
X330200Y787640D03*
X330200Y817640D03*
X248920Y838440D03*
X248920Y868440D03*
X248920Y889240D03*
X248920Y919240D03*
G54D22*
X114660Y833120D03*
X159660Y833120D03*
G54D23*
X330200Y629920D03*
X208280Y955040D03*
X60960Y655320D03*
G54D24*
X327555Y627275D02*
X332845Y627275D01*
X332845Y632565D01*
X327555Y632565D01*
X327555Y627275D01*D02*
X205635Y952395D02*
X210925Y952395D01*
X210925Y957685D01*
X205635Y957685D01*
X205635Y952395D01*D02*
X58315Y652675D02*
X63605Y652675D01*
X63605Y657965D01*
X58315Y657965D01*
X58315Y652675D01*D02*
G54D25*
X304800Y629920D03*
X279400Y629920D03*
X259080Y955040D03*
X233680Y955040D03*
X284480Y955040D03*
X60960Y629920D03*
G54D26*
X360680Y746760D03*
X386080Y746760D03*
X360680Y807720D03*
X386080Y807720D03*
X360680Y665480D03*
X386080Y665480D03*
G54D27*
X315200Y843280D03*
X345200Y843280D03*
X127240Y955040D03*
X157240Y955040D03*
G54D28*
X113480Y868680D03*
X201480Y868680D03*
X113480Y894080D03*
X201480Y894080D03*
X113480Y919480D03*
X201480Y919480D03*
X286200Y868680D03*
X374200Y868680D03*
X286200Y894080D03*
X374200Y894080D03*
X286200Y919480D03*
X374200Y919480D03*
G54D29*
X71120Y761577D03*
X71120Y833543D03*
G54D30*
X60960Y684450D03*
X60960Y728450D03*
X71120Y872080D03*
X71120Y916080D03*

M02*
