G04 Generated by Ultiboard 13.0 *
%FSLAX34Y34*%
%MOMM*%

%ADD10C,0.0001*%
%ADD11C,0.1270*%
%ADD12R,3.0053X0.9101*%
%ADD13C,0.5928*%
%ADD14R,0.0001X1.0000*%
%ADD15C,1.3000*%
%ADD16R,0.5291X0.5291*%
%ADD17C,0.9949*%
%ADD18C,1.6088*%
%ADD19R,2.5500X0.9000*%
%ADD20R,7.0000X5.3000*%
%ADD21R,1.4500X1.1500*%
%ADD22O,0.6096X1.7780*%
%ADD23R,1.1500X1.4500*%
%ADD24R,1.4000X1.0500*%
%ADD25R,0.9101X3.0053*%
%ADD26R,3.1500X2.2000*%
%ADD27R,1.8000X0.6000*%
%ADD28R,2.2500X2.1500*%
%ADD29R,1.0500X1.4000*%


G04 ColorRGB FF00CC for the following layer *
%LNSolder Mask Top*%
%LPD*%
G54D10*
G54D11*
X-2540Y-2540D02*
X-2540Y97968D01*
X-2540Y-2540D02*
X157968Y-2540D01*
X1602540Y-2540D02*
X1442032Y-2540D01*
X1602540Y-2540D02*
X1602540Y97968D01*
X1602540Y1002540D02*
X1602540Y902032D01*
X1602540Y1002540D02*
X1442032Y1002540D01*
X-2540Y1002540D02*
X157968Y1002540D01*
X-2540Y1002540D02*
X-2540Y902032D01*
X-52540Y-2540D02*
X-152540Y-2540D01*
X-102540Y-52540D02*
X-102540Y47460D01*
X-140040Y-2540D02*
G75*
D01*
G02X-140040Y-2540I37500J0*
G01*
X1652540Y-2540D02*
X1752540Y-2540D01*
X1702540Y-52540D02*
X1702540Y47460D01*
X1665040Y-2540D02*
G75*
D01*
G02X1665040Y-2540I37500J0*
G01*
X1690040Y-2540D02*
G75*
D01*
G02X1690040Y-2540I12500J0*
G01*
X-52540Y1002540D02*
X-152540Y1002540D01*
X-102540Y952540D02*
X-102540Y1052540D01*
X-140040Y1002540D02*
G75*
D01*
G02X-140040Y1002540I37500J0*
G01*
X-127540Y1002540D02*
G75*
D01*
G02X-127540Y1002540I25000J0*
G01*
X-115040Y1002540D02*
G75*
D01*
G02X-115040Y1002540I12500J0*
G01*
G54D12*
X360680Y446617D03*
X360680Y518583D03*
G54D13*
X345654Y442067D02*
X375706Y442067D01*
X375706Y451167D01*
X345654Y451167D01*
X345654Y442067D01*D02*
X345654Y514033D02*
X375706Y514033D01*
X375706Y523133D01*
X345654Y523133D01*
X345654Y514033D01*D02*
X426827Y604734D02*
X435927Y604734D01*
X435927Y634786D01*
X426827Y634786D01*
X426827Y604734D01*D02*
X498793Y604734D02*
X507893Y604734D01*
X507893Y634786D01*
X498793Y634786D01*
X498793Y604734D01*D02*
G54D14*
X406400Y408620D03*
X457200Y408620D03*
X406400Y495620D03*
X457200Y495620D03*
G54D15*
X406400Y403620D02*
X406400Y403620D01*
X406400Y413620D01*
X406400Y413620D01*
X406400Y403620D01*D02*
X457200Y403620D02*
X457200Y403620D01*
X457200Y413620D01*
X457200Y413620D01*
X457200Y403620D01*D02*
X406400Y490620D02*
X406400Y490620D01*
X406400Y500620D01*
X406400Y500620D01*
X406400Y490620D01*D02*
X457200Y490620D02*
X457200Y490620D01*
X457200Y500620D01*
X457200Y500620D01*
X457200Y490620D01*D02*
G54D16*
X421640Y381000D03*
X635000Y401320D03*
X492760Y802640D03*
G54D17*
X418995Y378355D02*
X424285Y378355D01*
X424285Y383645D01*
X418995Y383645D01*
X418995Y378355D01*D02*
X632355Y398675D02*
X637645Y398675D01*
X637645Y403965D01*
X632355Y403965D01*
X632355Y398675D01*D02*
X490115Y799995D02*
X495405Y799995D01*
X495405Y805285D01*
X490115Y805285D01*
X490115Y799995D01*D02*
G54D18*
X447040Y381000D03*
X609600Y401320D03*
X584200Y401320D03*
X731520Y528320D03*
X706120Y528320D03*
X731520Y426720D03*
X706120Y426720D03*
X543560Y802640D03*
X518160Y802640D03*
X568960Y802640D03*
X731520Y629920D03*
X706120Y629920D03*
G54D19*
X482960Y525640D03*
X482960Y571640D03*
G54D20*
X422960Y548640D03*
G54D21*
X492760Y488840D03*
X492760Y506840D03*
X629920Y473600D03*
X629920Y491600D03*
G54D22*
X514778Y472483D03*
X527478Y472483D03*
X540178Y472483D03*
X552878Y472483D03*
X565578Y472483D03*
X578278Y472483D03*
X590978Y472483D03*
X603678Y472483D03*
X514778Y527517D03*
X527478Y527517D03*
X540178Y527517D03*
X552878Y527517D03*
X565578Y527517D03*
X578278Y527517D03*
X590978Y527517D03*
X603678Y527517D03*
X541020Y566843D03*
X553720Y566843D03*
X566420Y566843D03*
X579120Y566843D03*
X604520Y566843D03*
X591820Y566843D03*
X617220Y566843D03*
X541020Y621877D03*
X553720Y621877D03*
X566420Y621877D03*
X579120Y621877D03*
X604520Y621877D03*
X591820Y621877D03*
X617220Y621877D03*
G54D23*
X519320Y441960D03*
X537320Y441960D03*
X565040Y441960D03*
X583040Y441960D03*
G54D24*
X650240Y473100D03*
X650240Y492100D03*
X508000Y661060D03*
X508000Y680060D03*
X441960Y747420D03*
X441960Y766420D03*
X533400Y661060D03*
X533400Y680060D03*
G54D25*
X431377Y619760D03*
X503343Y619760D03*
G54D26*
X370840Y600000D03*
X370840Y670000D03*
G54D27*
X393540Y693420D03*
X393540Y706120D03*
X393540Y718820D03*
X500540Y693420D03*
X500540Y706120D03*
X500540Y718820D03*
X663100Y688340D03*
X663100Y713740D03*
X663100Y701040D03*
X556100Y701040D03*
X556100Y713740D03*
X556100Y688340D03*
G54D28*
X470760Y756920D03*
X514760Y756920D03*
G54D29*
X640740Y650240D03*
X659740Y650240D03*
X640740Y629920D03*
X659740Y629920D03*
X640740Y609600D03*
X659740Y609600D03*
X554380Y746760D03*
X573380Y746760D03*

M02*
