G04 Generated by Ultiboard 13.0 *
%FSLAX34Y34*%
%MOMM*%

%ADD10C,0.0001*%
%ADD11C,0.2032*%
%ADD12C,0.1556*%
%ADD13C,0.5000*%
%ADD14C,0.2000*%
%ADD15C,0.2500*%
%ADD16C,0.0010*%
%ADD17C,0.0706*%
%ADD18C,0.1270*%
%ADD19C,0.95000*%


G04 ColorRGB FFFF00 for the following layer *
%LNSilkscreen Top*%
%LPD*%
G54D10*
G54D11*
X397964Y479354D02*
X399475Y476532D01*
X399475Y473710D01*
X397964Y470888D01*
X393428Y470888D01*
X391916Y473710D01*
X391916Y476532D01*
X393428Y479354D01*
X391916Y492054D02*
X391916Y483588D01*
X394940Y483588D01*
X394940Y489232D01*
X396452Y492054D01*
X397964Y492054D01*
X399475Y489232D01*
X399475Y483588D01*
X337397Y533400D02*
X337397Y427567D01*
X383963Y427567D02*
X383963Y533400D01*
X354330Y431800D02*
X367030Y431800D01*
X367030Y427567D02*
X383963Y427567D01*
X367030Y431800D02*
X367030Y427567D01*
X337397Y427567D02*
X354330Y427567D01*
X354330Y431800D01*
X360680Y487680D02*
X360680Y491490D01*
X368300Y477520D02*
X353060Y477520D01*
X353060Y485140D02*
X368300Y485140D01*
X353060Y481330D02*
X368300Y481330D01*
X353060Y486410D02*
X368300Y486410D01*
X368300Y487680D02*
X353060Y487680D01*
X360680Y477520D02*
X360680Y473710D01*
X383963Y533400D02*
X337397Y533400D01*
X368300Y481330D02*
X368300Y477520D01*
X353060Y481330D02*
X353060Y477520D01*
X410351Y358956D02*
X413173Y357445D01*
X415996Y357445D01*
X418818Y358956D01*
X418818Y365004D01*
X424462Y364248D02*
X425873Y365004D01*
X428696Y365004D01*
X431518Y363492D01*
X431518Y361980D01*
X430107Y361224D01*
X431518Y360468D01*
X431518Y358956D01*
X428696Y357445D01*
X425873Y357445D01*
X424462Y358200D01*
X425873Y361224D02*
X430107Y361224D01*
X459740Y368300D02*
X408940Y368300D01*
X427990Y393700D02*
X408940Y393700D01*
X408940Y368300D01*
X459740Y393700D02*
X436457Y393700D01*
X432223Y393700D02*
X432223Y385233D01*
X430107Y391583D02*
X432223Y393700D01*
X459740Y393700D02*
X459740Y368300D01*
X461460Y516140D02*
X466710Y516140D01*
X461460Y581140D02*
X466710Y581140D01*
X466710Y516140D02*
X466710Y581140D01*
X610028Y483067D02*
X508428Y483067D01*
X508428Y516933D02*
X610028Y516933D01*
X508428Y493650D02*
X508981Y493674D01*
X509531Y493747D01*
X510071Y493867D01*
X510600Y494033D01*
X511111Y494245D01*
X511603Y494501D01*
X512070Y494799D01*
X512510Y495136D01*
X512918Y495510D01*
X513292Y495919D01*
X513629Y496358D01*
X513927Y496825D01*
X514183Y497317D01*
X514395Y497829D01*
X514561Y498357D01*
X514681Y498898D01*
X514754Y499447D01*
X514778Y500000D01*
X514754Y500554D01*
X514681Y501103D01*
X514561Y501644D01*
X514395Y502172D01*
X514183Y502684D01*
X513927Y503175D01*
X513629Y503643D01*
X513292Y504082D01*
X512918Y504490D01*
X512510Y504865D01*
X512070Y505202D01*
X511603Y505500D01*
X511111Y505755D01*
X510600Y505967D01*
X510071Y506134D01*
X509530Y506254D01*
X508981Y506326D01*
X508428Y506350D01*
X516894Y513546D02*
X516888Y513694D01*
X516868Y513840D01*
X516836Y513985D01*
X516792Y514125D01*
X516736Y514262D01*
X516667Y514393D01*
X516588Y514518D01*
X516498Y514635D01*
X516398Y514744D01*
X516289Y514843D01*
X516172Y514933D01*
X516048Y515013D01*
X515916Y515081D01*
X515780Y515138D01*
X515639Y515182D01*
X515495Y515214D01*
X515348Y515233D01*
X515201Y515240D01*
X515053Y515233D01*
X514907Y515214D01*
X514763Y515182D01*
X514622Y515138D01*
X514485Y515081D01*
X514354Y515013D01*
X514230Y514933D01*
X514112Y514843D01*
X514003Y514744D01*
X513904Y514635D01*
X513814Y514518D01*
X513734Y514393D01*
X513666Y514262D01*
X513610Y514125D01*
X513565Y513985D01*
X513533Y513840D01*
X513514Y513694D01*
X513508Y513546D01*
X515201Y484760D02*
X515201Y491533D01*
X513508Y489840D01*
X516894Y510160D02*
X516888Y510308D01*
X516868Y510454D01*
X516836Y510599D01*
X516792Y510739D01*
X516736Y510876D01*
X516667Y511007D01*
X516588Y511132D01*
X516498Y511249D01*
X516398Y511358D01*
X516289Y511457D01*
X516172Y511547D01*
X516048Y511627D01*
X515916Y511695D01*
X515780Y511752D01*
X515639Y511796D01*
X515495Y511828D01*
X515348Y511847D01*
X515201Y511854D01*
X515053Y511847D01*
X514907Y511828D01*
X514763Y511796D01*
X514622Y511752D01*
X514485Y511695D01*
X514354Y511627D01*
X514230Y511547D01*
X514112Y511457D01*
X514003Y511358D01*
X513904Y511249D01*
X513814Y511132D01*
X513734Y511007D01*
X513666Y510876D01*
X513610Y510739D01*
X513565Y510599D01*
X513533Y510454D01*
X513514Y510308D01*
X513508Y510160D01*
X513514Y510013D01*
X513533Y509866D01*
X513565Y509722D01*
X513610Y509581D01*
X513666Y509445D01*
X513734Y509314D01*
X513814Y509189D01*
X513904Y509072D01*
X514003Y508963D01*
X514112Y508863D01*
X514230Y508773D01*
X514354Y508694D01*
X514485Y508626D01*
X514622Y508569D01*
X514763Y508525D01*
X514907Y508493D01*
X515053Y508473D01*
X515201Y508467D01*
X515348Y508473D01*
X515495Y508493D01*
X515639Y508525D01*
X515780Y508569D01*
X515916Y508626D01*
X516048Y508694D01*
X516172Y508773D01*
X516289Y508863D01*
X516398Y508963D01*
X516498Y509072D01*
X516588Y509189D01*
X516667Y509314D01*
X516736Y509445D01*
X516792Y509581D01*
X516836Y509722D01*
X516868Y509866D01*
X516888Y510013D01*
X516894Y510160D01*
X508428Y506350D02*
X508428Y516933D01*
X511815Y508467D02*
X511815Y515240D01*
X513508Y510160D02*
X513508Y513547D01*
X508428Y483067D02*
X508428Y493650D01*
X511815Y515240D02*
X510121Y513547D01*
X554148Y486453D02*
X550761Y486453D01*
X550761Y488147D02*
X552455Y491533D01*
X550761Y486453D02*
X550761Y488147D01*
X552455Y484760D02*
X552455Y488147D01*
X567695Y511853D02*
X567842Y511859D01*
X567989Y511879D01*
X568133Y511911D01*
X568274Y511955D01*
X568410Y512012D01*
X568542Y512080D01*
X568666Y512159D01*
X568783Y512249D01*
X568892Y512349D01*
X568992Y512458D01*
X569082Y512575D01*
X569161Y512700D01*
X569230Y512831D01*
X569286Y512967D01*
X569330Y513108D01*
X569362Y513252D01*
X569382Y513399D01*
X569388Y513546D01*
X569382Y513694D01*
X569362Y513840D01*
X569330Y513985D01*
X569286Y514125D01*
X569230Y514262D01*
X569161Y514393D01*
X569082Y514518D01*
X568992Y514635D01*
X568892Y514744D01*
X568783Y514844D01*
X568666Y514933D01*
X568542Y515013D01*
X568410Y515081D01*
X568274Y515138D01*
X568133Y515182D01*
X567989Y515214D01*
X567842Y515233D01*
X567695Y515240D01*
X567547Y515233D01*
X567401Y515214D01*
X567257Y515182D01*
X567116Y515138D01*
X566979Y515081D01*
X566848Y515013D01*
X566724Y514933D01*
X566606Y514844D01*
X566497Y514744D01*
X566398Y514635D01*
X566308Y514518D01*
X566228Y514393D01*
X566160Y514262D01*
X566104Y514125D01*
X566059Y513985D01*
X566027Y513840D01*
X566008Y513694D01*
X566002Y513546D01*
X564308Y515240D02*
X564308Y508467D01*
X567695Y511854D02*
X567547Y511847D01*
X567401Y511828D01*
X567257Y511796D01*
X567116Y511752D01*
X566979Y511695D01*
X566848Y511627D01*
X566724Y511547D01*
X566606Y511458D01*
X566497Y511358D01*
X566398Y511249D01*
X566308Y511132D01*
X566228Y511007D01*
X566160Y510876D01*
X566104Y510739D01*
X566059Y510599D01*
X566027Y510454D01*
X566008Y510308D01*
X566002Y510160D01*
X569388Y508467D02*
X566001Y508467D01*
X566001Y510160D01*
X562615Y513547D02*
X564308Y515240D01*
X610028Y516933D02*
X610028Y483067D01*
X604948Y513547D02*
X604948Y510160D01*
X604948Y513546D02*
X604942Y513694D01*
X604922Y513840D01*
X604890Y513985D01*
X604846Y514125D01*
X604790Y514262D01*
X604721Y514393D01*
X604642Y514518D01*
X604552Y514635D01*
X604452Y514744D01*
X604343Y514843D01*
X604226Y514933D01*
X604102Y515013D01*
X603970Y515081D01*
X603834Y515138D01*
X603693Y515182D01*
X603549Y515214D01*
X603402Y515233D01*
X603255Y515240D01*
X603107Y515233D01*
X602961Y515214D01*
X602817Y515182D01*
X602676Y515138D01*
X602539Y515081D01*
X602408Y515013D01*
X602284Y514933D01*
X602166Y514843D01*
X602057Y514744D01*
X601958Y514635D01*
X601868Y514518D01*
X601788Y514393D01*
X601720Y514262D01*
X601664Y514125D01*
X601619Y513985D01*
X601587Y513840D01*
X601568Y513694D01*
X601562Y513546D01*
X601568Y513399D01*
X601587Y513252D01*
X601619Y513108D01*
X601664Y512967D01*
X601720Y512831D01*
X601788Y512700D01*
X601868Y512575D01*
X601958Y512458D01*
X602057Y512349D01*
X602166Y512249D01*
X602284Y512159D01*
X602408Y512080D01*
X602539Y512012D01*
X602676Y511955D01*
X602817Y511911D01*
X602961Y511879D01*
X603107Y511859D01*
X603255Y511853D01*
X603402Y511859D01*
X603549Y511879D01*
X603693Y511911D01*
X603834Y511955D01*
X603970Y512012D01*
X604102Y512080D01*
X604226Y512159D01*
X604343Y512249D01*
X604452Y512349D01*
X604552Y512458D01*
X604642Y512575D01*
X604721Y512700D01*
X604790Y512831D01*
X604846Y512967D01*
X604890Y513108D01*
X604922Y513252D01*
X604942Y513399D01*
X604948Y513546D01*
X604948Y486453D02*
X604942Y486601D01*
X604922Y486747D01*
X604890Y486892D01*
X604846Y487032D01*
X604790Y487169D01*
X604721Y487300D01*
X604642Y487425D01*
X604552Y487542D01*
X604452Y487651D01*
X604343Y487750D01*
X604226Y487840D01*
X604102Y487920D01*
X603970Y487988D01*
X603834Y488045D01*
X603693Y488089D01*
X603549Y488121D01*
X603402Y488140D01*
X603255Y488147D01*
X603107Y488140D01*
X602961Y488121D01*
X602817Y488089D01*
X602676Y488045D01*
X602539Y487988D01*
X602408Y487920D01*
X602284Y487840D01*
X602166Y487750D01*
X602057Y487651D01*
X601958Y487542D01*
X601868Y487425D01*
X601788Y487300D01*
X601720Y487169D01*
X601664Y487032D01*
X601619Y486892D01*
X601587Y486747D01*
X601568Y486601D01*
X601562Y486453D01*
X601568Y486306D01*
X601587Y486159D01*
X601619Y486015D01*
X601664Y485874D01*
X601720Y485738D01*
X601788Y485607D01*
X601868Y485482D01*
X601958Y485365D01*
X602057Y485256D01*
X602166Y485156D01*
X602284Y485066D01*
X602408Y484987D01*
X602539Y484919D01*
X602676Y484862D01*
X602817Y484818D01*
X602961Y484786D01*
X603107Y484766D01*
X603255Y484760D01*
X603402Y484766D01*
X603549Y484786D01*
X603693Y484818D01*
X603834Y484862D01*
X603970Y484919D01*
X604102Y484987D01*
X604226Y485066D01*
X604343Y485156D01*
X604452Y485256D01*
X604552Y485365D01*
X604642Y485482D01*
X604721Y485607D01*
X604790Y485738D01*
X604846Y485874D01*
X604890Y486015D01*
X604922Y486159D01*
X604942Y486306D01*
X604948Y486453D01*
X604948Y489840D02*
X604942Y489988D01*
X604922Y490134D01*
X604890Y490279D01*
X604846Y490419D01*
X604790Y490556D01*
X604721Y490687D01*
X604642Y490812D01*
X604552Y490929D01*
X604452Y491038D01*
X604343Y491137D01*
X604226Y491227D01*
X604102Y491307D01*
X603970Y491375D01*
X603834Y491432D01*
X603693Y491476D01*
X603549Y491508D01*
X603402Y491527D01*
X603255Y491534D01*
X603107Y491527D01*
X602961Y491508D01*
X602817Y491476D01*
X602676Y491432D01*
X602539Y491375D01*
X602408Y491307D01*
X602284Y491227D01*
X602166Y491137D01*
X602057Y491038D01*
X601958Y490929D01*
X601868Y490812D01*
X601788Y490687D01*
X601720Y490556D01*
X601664Y490419D01*
X601619Y490279D01*
X601587Y490134D01*
X601568Y489988D01*
X601562Y489840D01*
X601568Y489693D01*
X601587Y489546D01*
X601619Y489402D01*
X601664Y489261D01*
X601720Y489125D01*
X601788Y488994D01*
X601868Y488869D01*
X601958Y488752D01*
X602057Y488643D01*
X602166Y488543D01*
X602284Y488453D01*
X602408Y488374D01*
X602539Y488306D01*
X602676Y488249D01*
X602817Y488205D01*
X602961Y488173D01*
X603107Y488153D01*
X603255Y488147D01*
X603402Y488153D01*
X603549Y488173D01*
X603693Y488205D01*
X603834Y488249D01*
X603970Y488306D01*
X604102Y488374D01*
X604226Y488453D01*
X604343Y488543D01*
X604452Y488643D01*
X604552Y488752D01*
X604642Y488869D01*
X604721Y488994D01*
X604790Y489125D01*
X604846Y489261D01*
X604890Y489402D01*
X604922Y489546D01*
X604942Y489693D01*
X604948Y489840D01*
X601562Y510160D02*
X601568Y510013D01*
X601587Y509866D01*
X601619Y509722D01*
X601664Y509581D01*
X601720Y509445D01*
X601788Y509314D01*
X601868Y509189D01*
X601958Y509072D01*
X602057Y508963D01*
X602166Y508863D01*
X602284Y508773D01*
X602408Y508694D01*
X602539Y508626D01*
X602676Y508569D01*
X602817Y508525D01*
X602961Y508493D01*
X603107Y508473D01*
X603255Y508467D01*
X603402Y508473D01*
X603549Y508493D01*
X603693Y508525D01*
X603834Y508569D01*
X603970Y508626D01*
X604102Y508694D01*
X604226Y508773D01*
X604343Y508863D01*
X604452Y508963D01*
X604552Y509072D01*
X604642Y509189D01*
X604721Y509314D01*
X604790Y509445D01*
X604846Y509581D01*
X604890Y509722D01*
X604922Y509866D01*
X604942Y510013D01*
X604948Y510160D01*
X648829Y425904D02*
X646007Y427415D01*
X643184Y427415D01*
X640362Y425904D01*
X640362Y419856D01*
X636129Y421368D02*
X633307Y419856D01*
X630484Y419856D01*
X627662Y421368D01*
X627662Y422124D01*
X636129Y427415D01*
X627662Y427415D01*
X627662Y426660D01*
X647700Y388620D02*
X647700Y414020D01*
X571500Y388620D02*
X571500Y414020D01*
X571500Y388620D02*
X622300Y388620D01*
X628650Y388620D02*
X647700Y388620D01*
X624417Y388620D02*
X624417Y397087D01*
X626533Y390737D02*
X624417Y388620D01*
X571500Y414020D02*
X647700Y414020D01*
X667264Y549769D02*
X659705Y549769D01*
X659705Y541302D01*
X659705Y528602D02*
X659705Y537069D01*
X663484Y537069D01*
X667264Y537069D01*
X667264Y528602D01*
X663484Y537069D02*
X663484Y531424D01*
X659705Y524369D02*
X659705Y518724D01*
X661216Y515902D01*
X665752Y515902D01*
X667264Y518724D01*
X667264Y524369D01*
X667264Y522958D02*
X659705Y522958D01*
X665752Y510258D02*
X667264Y507436D01*
X659705Y507436D01*
X659705Y511669D02*
X659705Y503202D01*
X758762Y554258D02*
X756349Y557641D01*
X753651Y560800D01*
X750687Y563712D01*
X747481Y566355D01*
X744057Y568708D01*
X740441Y570754D01*
X736661Y572477D01*
X732744Y573864D01*
X728722Y574904D01*
X724624Y575590D01*
X720482Y575916D01*
X716328Y575880D01*
X712192Y575482D01*
X708107Y574724D01*
X704103Y573614D01*
X700211Y572159D01*
X696461Y570370D01*
X692882Y568262D01*
X689499Y565849D01*
X686340Y563151D01*
X683428Y560187D01*
X680785Y556981D01*
X678432Y553557D01*
X676386Y549941D01*
X674663Y546161D01*
X673276Y542244D01*
X672236Y538222D01*
X671550Y534124D01*
X671224Y529982D01*
X671260Y525828D01*
X671658Y521692D01*
X672416Y517607D01*
X673526Y513603D01*
X674981Y509711D01*
X676770Y505961D01*
X678878Y502382D01*
X681291Y498999D01*
X683989Y495840D01*
X686953Y492928D01*
X690159Y490285D01*
X693583Y487932D01*
X697199Y485886D01*
X700979Y484163D01*
X704896Y482776D01*
X708918Y481736D01*
X713016Y481050D01*
X717158Y480724D01*
X721312Y480760D01*
X725448Y481158D01*
X729533Y481916D01*
X733537Y483026D01*
X737429Y484481D01*
X741179Y486270D01*
X744758Y488378D01*
X748141Y490791D01*
X751300Y493489D01*
X754212Y496453D01*
X756855Y499659D01*
X758762Y502382D01*
X678603Y528320D02*
X678756Y524815D01*
X679214Y521336D01*
X679974Y517911D01*
X681029Y514565D01*
X682371Y511324D01*
X683991Y508212D01*
X685876Y505253D01*
X688012Y502469D01*
X690383Y499883D01*
X692969Y497512D01*
X695753Y495376D01*
X698712Y493491D01*
X701824Y491871D01*
X705065Y490529D01*
X708411Y489474D01*
X711836Y488714D01*
X715315Y488256D01*
X718820Y488103D01*
X722325Y488256D01*
X725804Y488714D01*
X729229Y489474D01*
X732575Y490529D01*
X735816Y491871D01*
X738928Y493491D01*
X741887Y495376D01*
X744671Y497512D01*
X747257Y499883D01*
X749628Y502469D01*
X751764Y505253D01*
X753649Y508212D01*
X755269Y511324D01*
X756611Y514565D01*
X757666Y517911D01*
X758426Y521336D01*
X758884Y524815D01*
X759037Y528320D01*
X758884Y531825D01*
X758426Y535304D01*
X757666Y538729D01*
X756611Y542075D01*
X755269Y545316D01*
X753649Y548428D01*
X751764Y551387D01*
X749628Y554171D01*
X747257Y556757D01*
X744671Y559128D01*
X741887Y561264D01*
X738928Y563149D01*
X735816Y564769D01*
X732575Y566111D01*
X729229Y567166D01*
X725804Y567926D01*
X722325Y568384D01*
X718820Y568537D01*
X715315Y568384D01*
X711836Y567926D01*
X708411Y567166D01*
X705065Y566111D01*
X701824Y564769D01*
X698712Y563149D01*
X695753Y561264D01*
X692969Y559128D01*
X690383Y556757D01*
X688012Y554171D01*
X685876Y551387D01*
X683991Y548428D01*
X682371Y545316D01*
X681029Y542075D01*
X679974Y538729D01*
X679214Y535304D01*
X678756Y531825D01*
X678603Y528320D01*
X708237Y543137D02*
X704003Y543137D01*
X704003Y541020D02*
X704011Y540836D01*
X704035Y540652D01*
X704075Y540472D01*
X704131Y540296D01*
X704202Y540125D01*
X704287Y539962D01*
X704386Y539806D01*
X704499Y539659D01*
X704623Y539523D01*
X704759Y539399D01*
X704906Y539286D01*
X705062Y539187D01*
X705225Y539102D01*
X705396Y539031D01*
X705572Y538975D01*
X705752Y538935D01*
X705936Y538911D01*
X706120Y538903D01*
X706304Y538911D01*
X706488Y538935D01*
X706668Y538975D01*
X706844Y539031D01*
X707015Y539102D01*
X707178Y539187D01*
X707334Y539286D01*
X707481Y539399D01*
X707617Y539523D01*
X707741Y539659D01*
X707854Y539806D01*
X707953Y539962D01*
X708038Y540125D01*
X708109Y540296D01*
X708165Y540472D01*
X708205Y540652D01*
X708229Y540836D01*
X708237Y541020D01*
X759037Y502920D02*
X759037Y553720D01*
X708237Y547370D02*
X708237Y541020D01*
X733637Y545253D02*
X733629Y545437D01*
X733605Y545621D01*
X733565Y545801D01*
X733509Y545977D01*
X733438Y546148D01*
X733353Y546311D01*
X733254Y546467D01*
X733141Y546614D01*
X733017Y546750D01*
X732881Y546874D01*
X732734Y546987D01*
X732578Y547086D01*
X732415Y547171D01*
X732244Y547242D01*
X732068Y547298D01*
X731888Y547338D01*
X731704Y547362D01*
X731520Y547370D01*
X731336Y547362D01*
X731152Y547338D01*
X730972Y547298D01*
X730796Y547242D01*
X730625Y547171D01*
X730462Y547086D01*
X730306Y546987D01*
X730159Y546874D01*
X730023Y546750D01*
X729899Y546614D01*
X729786Y546467D01*
X729687Y546311D01*
X729602Y546148D01*
X729531Y545977D01*
X729475Y545801D01*
X729435Y545621D01*
X729411Y545437D01*
X729403Y545253D01*
X729403Y545253D01*
X733637Y545253D02*
X733637Y541020D01*
X729403Y541020D02*
X729411Y540836D01*
X729435Y540652D01*
X729475Y540472D01*
X729531Y540296D01*
X729602Y540125D01*
X729687Y539962D01*
X729786Y539806D01*
X729899Y539659D01*
X730023Y539523D01*
X730159Y539399D01*
X730306Y539286D01*
X730462Y539187D01*
X730625Y539102D01*
X730796Y539031D01*
X730972Y538975D01*
X731152Y538935D01*
X731336Y538911D01*
X731520Y538903D01*
X731704Y538911D01*
X731888Y538935D01*
X732068Y538975D01*
X732244Y539031D01*
X732415Y539102D01*
X732578Y539187D01*
X732734Y539286D01*
X732881Y539399D01*
X733017Y539523D01*
X733141Y539659D01*
X733254Y539806D01*
X733353Y539962D01*
X733438Y540125D01*
X733509Y540296D01*
X733565Y540472D01*
X733605Y540652D01*
X733629Y540836D01*
X733637Y541020D01*
X704003Y547370D02*
X704003Y541020D01*
X667264Y448169D02*
X659705Y448169D01*
X659705Y439702D01*
X659705Y427002D02*
X659705Y435469D01*
X663484Y435469D01*
X667264Y435469D01*
X667264Y427002D01*
X663484Y435469D02*
X663484Y429824D01*
X659705Y422769D02*
X659705Y417124D01*
X661216Y414302D01*
X665752Y414302D01*
X667264Y417124D01*
X667264Y422769D01*
X667264Y421358D02*
X659705Y421358D01*
X666508Y408658D02*
X667264Y407247D01*
X667264Y404424D01*
X665752Y401602D01*
X664240Y401602D01*
X663484Y403013D01*
X662728Y401602D01*
X661216Y401602D01*
X659705Y404424D01*
X659705Y407247D01*
X660460Y408658D01*
X663484Y407247D02*
X663484Y403013D01*
X758762Y452658D02*
X756349Y456041D01*
X753651Y459200D01*
X750687Y462112D01*
X747481Y464755D01*
X744057Y467108D01*
X740441Y469154D01*
X736661Y470877D01*
X732744Y472264D01*
X728722Y473304D01*
X724624Y473990D01*
X720482Y474316D01*
X716328Y474280D01*
X712192Y473882D01*
X708107Y473124D01*
X704103Y472014D01*
X700211Y470559D01*
X696461Y468770D01*
X692882Y466662D01*
X689499Y464249D01*
X686340Y461551D01*
X683428Y458587D01*
X680785Y455381D01*
X678432Y451957D01*
X676386Y448341D01*
X674663Y444561D01*
X673276Y440644D01*
X672236Y436622D01*
X671550Y432524D01*
X671224Y428382D01*
X671260Y424228D01*
X671658Y420092D01*
X672416Y416007D01*
X673526Y412003D01*
X674981Y408111D01*
X676770Y404361D01*
X678878Y400782D01*
X681291Y397399D01*
X683989Y394240D01*
X686953Y391328D01*
X690159Y388685D01*
X693583Y386332D01*
X697199Y384286D01*
X700979Y382563D01*
X704896Y381176D01*
X708918Y380136D01*
X713016Y379450D01*
X717158Y379124D01*
X721312Y379160D01*
X725448Y379558D01*
X729533Y380316D01*
X733537Y381426D01*
X737429Y382881D01*
X741179Y384670D01*
X744758Y386778D01*
X748141Y389191D01*
X751300Y391889D01*
X754212Y394853D01*
X756855Y398059D01*
X758762Y400782D01*
X678603Y426720D02*
X678756Y423215D01*
X679214Y419736D01*
X679974Y416311D01*
X681029Y412965D01*
X682371Y409724D01*
X683991Y406612D01*
X685876Y403653D01*
X688012Y400869D01*
X690383Y398283D01*
X692969Y395912D01*
X695753Y393776D01*
X698712Y391891D01*
X701824Y390271D01*
X705065Y388929D01*
X708411Y387874D01*
X711836Y387114D01*
X715315Y386656D01*
X718820Y386503D01*
X722325Y386656D01*
X725804Y387114D01*
X729229Y387874D01*
X732575Y388929D01*
X735816Y390271D01*
X738928Y391891D01*
X741887Y393776D01*
X744671Y395912D01*
X747257Y398283D01*
X749628Y400869D01*
X751764Y403653D01*
X753649Y406612D01*
X755269Y409724D01*
X756611Y412965D01*
X757666Y416311D01*
X758426Y419736D01*
X758884Y423215D01*
X759037Y426720D01*
X758884Y430225D01*
X758426Y433704D01*
X757666Y437129D01*
X756611Y440475D01*
X755269Y443716D01*
X753649Y446828D01*
X751764Y449787D01*
X749628Y452571D01*
X747257Y455157D01*
X744671Y457528D01*
X741887Y459664D01*
X738928Y461549D01*
X735816Y463169D01*
X732575Y464511D01*
X729229Y465566D01*
X725804Y466326D01*
X722325Y466784D01*
X718820Y466937D01*
X715315Y466784D01*
X711836Y466326D01*
X708411Y465566D01*
X705065Y464511D01*
X701824Y463169D01*
X698712Y461549D01*
X695753Y459664D01*
X692969Y457528D01*
X690383Y455157D01*
X688012Y452571D01*
X685876Y449787D01*
X683991Y446828D01*
X682371Y443716D01*
X681029Y440475D01*
X679974Y437129D01*
X679214Y433704D01*
X678756Y430225D01*
X678603Y426720D01*
X708237Y441537D02*
X704003Y441537D01*
X704003Y439420D02*
X704011Y439236D01*
X704035Y439052D01*
X704075Y438872D01*
X704131Y438696D01*
X704202Y438525D01*
X704287Y438362D01*
X704386Y438206D01*
X704499Y438059D01*
X704623Y437923D01*
X704759Y437799D01*
X704906Y437686D01*
X705062Y437587D01*
X705225Y437502D01*
X705396Y437431D01*
X705572Y437375D01*
X705752Y437335D01*
X705936Y437311D01*
X706120Y437303D01*
X706304Y437311D01*
X706488Y437335D01*
X706668Y437375D01*
X706844Y437431D01*
X707015Y437502D01*
X707178Y437587D01*
X707334Y437686D01*
X707481Y437799D01*
X707617Y437923D01*
X707741Y438059D01*
X707854Y438206D01*
X707953Y438362D01*
X708038Y438525D01*
X708109Y438696D01*
X708165Y438872D01*
X708205Y439052D01*
X708229Y439236D01*
X708237Y439420D01*
X759037Y401320D02*
X759037Y452120D01*
X708237Y445770D02*
X708237Y439420D01*
X733637Y443653D02*
X733629Y443837D01*
X733605Y444021D01*
X733565Y444201D01*
X733509Y444377D01*
X733438Y444548D01*
X733353Y444711D01*
X733254Y444867D01*
X733141Y445014D01*
X733017Y445150D01*
X732881Y445274D01*
X732734Y445387D01*
X732578Y445486D01*
X732415Y445571D01*
X732244Y445642D01*
X732068Y445698D01*
X731888Y445738D01*
X731704Y445762D01*
X731520Y445770D01*
X731336Y445762D01*
X731152Y445738D01*
X730972Y445698D01*
X730796Y445642D01*
X730625Y445571D01*
X730462Y445486D01*
X730306Y445387D01*
X730159Y445274D01*
X730023Y445150D01*
X729899Y445014D01*
X729786Y444867D01*
X729687Y444711D01*
X729602Y444548D01*
X729531Y444377D01*
X729475Y444201D01*
X729435Y444021D01*
X729411Y443837D01*
X729403Y443653D01*
X729403Y443653D01*
X733637Y443653D02*
X733637Y439420D01*
X729403Y439420D02*
X729411Y439236D01*
X729435Y439052D01*
X729475Y438872D01*
X729531Y438696D01*
X729602Y438525D01*
X729687Y438362D01*
X729786Y438206D01*
X729899Y438059D01*
X730023Y437923D01*
X730159Y437799D01*
X730306Y437686D01*
X730462Y437587D01*
X730625Y437502D01*
X730796Y437431D01*
X730972Y437375D01*
X731152Y437335D01*
X731336Y437311D01*
X731520Y437303D01*
X731704Y437311D01*
X731888Y437335D01*
X732068Y437375D01*
X732244Y437431D01*
X732415Y437502D01*
X732578Y437587D01*
X732734Y437686D01*
X732881Y437799D01*
X733017Y437923D01*
X733141Y438059D01*
X733254Y438206D01*
X733353Y438362D01*
X733438Y438525D01*
X733509Y438696D01*
X733565Y438872D01*
X733605Y439052D01*
X733629Y439236D01*
X733637Y439420D01*
X704003Y445770D02*
X704003Y439420D01*
X464114Y582476D02*
X461292Y580965D01*
X458470Y580965D01*
X455648Y582476D01*
X455648Y587012D01*
X458470Y588524D01*
X461292Y588524D01*
X464114Y587012D01*
X475403Y588524D02*
X471170Y588524D01*
X468348Y587012D01*
X468348Y583988D01*
X468348Y582476D01*
X471170Y580965D01*
X473992Y580965D01*
X476814Y582476D01*
X476814Y583988D01*
X473992Y585500D01*
X471170Y585500D01*
X468348Y583988D01*
X518160Y643043D02*
X412327Y643043D01*
X412327Y596477D02*
X518160Y596477D01*
X416560Y626110D02*
X416560Y613410D01*
X412327Y613410D02*
X412327Y596477D01*
X416560Y613410D02*
X412327Y613410D01*
X412327Y643043D02*
X412327Y626110D01*
X416560Y626110D01*
X472440Y619760D02*
X476250Y619760D01*
X462280Y612140D02*
X462280Y627380D01*
X469900Y627380D02*
X469900Y612140D01*
X466090Y627380D02*
X466090Y612140D01*
X471170Y627380D02*
X471170Y612140D01*
X472440Y612140D02*
X472440Y627380D01*
X462280Y619760D02*
X458470Y619760D01*
X518160Y596477D02*
X518160Y643043D01*
X466090Y612140D02*
X462280Y612140D01*
X466090Y627380D02*
X462280Y627380D01*
X482525Y779509D02*
X485347Y777997D01*
X488170Y777997D01*
X490992Y779509D01*
X490992Y785557D01*
X496636Y784045D02*
X499459Y785557D01*
X499459Y777997D01*
X495225Y777997D02*
X503692Y777997D01*
X581660Y789940D02*
X480060Y789940D01*
X581660Y815340D02*
X505460Y815340D01*
X480060Y815340D02*
X480060Y789940D01*
X499110Y815340D02*
X480060Y815340D01*
X503343Y815340D02*
X503343Y806873D01*
X501227Y813223D02*
X503343Y815340D01*
X581660Y815340D02*
X581660Y789940D01*
X667264Y651369D02*
X659705Y651369D01*
X659705Y642902D01*
X659705Y630202D02*
X659705Y638669D01*
X663484Y638669D01*
X667264Y638669D01*
X667264Y630202D01*
X663484Y638669D02*
X663484Y633024D01*
X659705Y625969D02*
X659705Y620324D01*
X661216Y617502D01*
X665752Y617502D01*
X667264Y620324D01*
X667264Y625969D01*
X667264Y624558D02*
X659705Y624558D01*
X665752Y613269D02*
X667264Y610447D01*
X667264Y607624D01*
X665752Y604802D01*
X664996Y604802D01*
X659705Y613269D01*
X659705Y604802D01*
X660460Y604802D01*
X758762Y655858D02*
X756349Y659241D01*
X753651Y662400D01*
X750687Y665312D01*
X747481Y667955D01*
X744057Y670308D01*
X740441Y672354D01*
X736661Y674077D01*
X732744Y675464D01*
X728722Y676504D01*
X724624Y677190D01*
X720482Y677516D01*
X716328Y677480D01*
X712192Y677082D01*
X708107Y676324D01*
X704103Y675214D01*
X700211Y673759D01*
X696461Y671970D01*
X692882Y669862D01*
X689499Y667449D01*
X686340Y664751D01*
X683428Y661787D01*
X680785Y658581D01*
X678432Y655157D01*
X676386Y651541D01*
X674663Y647761D01*
X673276Y643844D01*
X672236Y639822D01*
X671550Y635724D01*
X671224Y631582D01*
X671260Y627428D01*
X671658Y623292D01*
X672416Y619207D01*
X673526Y615203D01*
X674981Y611311D01*
X676770Y607561D01*
X678878Y603982D01*
X681291Y600599D01*
X683989Y597440D01*
X686953Y594528D01*
X690159Y591885D01*
X693583Y589532D01*
X697199Y587486D01*
X700979Y585763D01*
X704896Y584376D01*
X708918Y583336D01*
X713016Y582650D01*
X717158Y582324D01*
X721312Y582360D01*
X725448Y582758D01*
X729533Y583516D01*
X733537Y584626D01*
X737429Y586081D01*
X741179Y587870D01*
X744758Y589978D01*
X748141Y592391D01*
X751300Y595089D01*
X754212Y598053D01*
X756855Y601259D01*
X758762Y603982D01*
X678603Y629920D02*
X678756Y626415D01*
X679214Y622936D01*
X679974Y619511D01*
X681029Y616165D01*
X682371Y612924D01*
X683991Y609812D01*
X685876Y606853D01*
X688012Y604069D01*
X690383Y601483D01*
X692969Y599112D01*
X695753Y596976D01*
X698712Y595091D01*
X701824Y593471D01*
X705065Y592129D01*
X708411Y591074D01*
X711836Y590314D01*
X715315Y589856D01*
X718820Y589703D01*
X722325Y589856D01*
X725804Y590314D01*
X729229Y591074D01*
X732575Y592129D01*
X735816Y593471D01*
X738928Y595091D01*
X741887Y596976D01*
X744671Y599112D01*
X747257Y601483D01*
X749628Y604069D01*
X751764Y606853D01*
X753649Y609812D01*
X755269Y612924D01*
X756611Y616165D01*
X757666Y619511D01*
X758426Y622936D01*
X758884Y626415D01*
X759037Y629920D01*
X758884Y633425D01*
X758426Y636904D01*
X757666Y640329D01*
X756611Y643675D01*
X755269Y646916D01*
X753649Y650028D01*
X751764Y652987D01*
X749628Y655771D01*
X747257Y658357D01*
X744671Y660728D01*
X741887Y662864D01*
X738928Y664749D01*
X735816Y666369D01*
X732575Y667711D01*
X729229Y668766D01*
X725804Y669526D01*
X722325Y669984D01*
X718820Y670137D01*
X715315Y669984D01*
X711836Y669526D01*
X708411Y668766D01*
X705065Y667711D01*
X701824Y666369D01*
X698712Y664749D01*
X695753Y662864D01*
X692969Y660728D01*
X690383Y658357D01*
X688012Y655771D01*
X685876Y652987D01*
X683991Y650028D01*
X682371Y646916D01*
X681029Y643675D01*
X679974Y640329D01*
X679214Y636904D01*
X678756Y633425D01*
X678603Y629920D01*
X708237Y648970D02*
X708237Y642620D01*
X704003Y642620D02*
X704011Y642436D01*
X704035Y642252D01*
X704075Y642072D01*
X704131Y641896D01*
X704202Y641725D01*
X704287Y641562D01*
X704386Y641406D01*
X704499Y641259D01*
X704623Y641123D01*
X704759Y640999D01*
X704906Y640886D01*
X705062Y640787D01*
X705225Y640702D01*
X705396Y640631D01*
X705572Y640575D01*
X705752Y640535D01*
X705936Y640511D01*
X706120Y640503D01*
X706304Y640511D01*
X706488Y640535D01*
X706668Y640575D01*
X706844Y640631D01*
X707015Y640702D01*
X707178Y640787D01*
X707334Y640886D01*
X707481Y640999D01*
X707617Y641123D01*
X707741Y641259D01*
X707854Y641406D01*
X707953Y641562D01*
X708038Y641725D01*
X708109Y641896D01*
X708165Y642072D01*
X708205Y642252D01*
X708229Y642436D01*
X708237Y642620D01*
X708237Y644737D02*
X704003Y644737D01*
X759037Y604520D02*
X759037Y655320D01*
X733637Y646853D02*
X733629Y647037D01*
X733605Y647221D01*
X733565Y647401D01*
X733509Y647577D01*
X733438Y647748D01*
X733353Y647911D01*
X733254Y648067D01*
X733141Y648214D01*
X733017Y648350D01*
X732881Y648474D01*
X732734Y648587D01*
X732578Y648686D01*
X732415Y648771D01*
X732244Y648842D01*
X732068Y648898D01*
X731888Y648938D01*
X731704Y648962D01*
X731520Y648970D01*
X731336Y648962D01*
X731152Y648938D01*
X730972Y648898D01*
X730796Y648842D01*
X730625Y648771D01*
X730462Y648686D01*
X730306Y648587D01*
X730159Y648474D01*
X730023Y648350D01*
X729899Y648214D01*
X729786Y648067D01*
X729687Y647911D01*
X729602Y647748D01*
X729531Y647577D01*
X729475Y647401D01*
X729435Y647221D01*
X729411Y647037D01*
X729403Y646853D01*
X729403Y646853D01*
X729403Y642620D02*
X729411Y642436D01*
X729435Y642252D01*
X729475Y642072D01*
X729531Y641896D01*
X729602Y641725D01*
X729687Y641562D01*
X729786Y641406D01*
X729899Y641259D01*
X730023Y641123D01*
X730159Y640999D01*
X730306Y640886D01*
X730462Y640787D01*
X730625Y640702D01*
X730796Y640631D01*
X730972Y640575D01*
X731152Y640535D01*
X731336Y640511D01*
X731520Y640503D01*
X731704Y640511D01*
X731888Y640535D01*
X732068Y640575D01*
X732244Y640631D01*
X732415Y640702D01*
X732578Y640787D01*
X732734Y640886D01*
X732881Y640999D01*
X733017Y641123D01*
X733141Y641259D01*
X733254Y641406D01*
X733353Y641562D01*
X733438Y641725D01*
X733509Y641896D01*
X733565Y642072D01*
X733605Y642252D01*
X733629Y642436D01*
X733637Y642620D01*
X733637Y646853D02*
X733637Y642620D01*
X704003Y648970D02*
X704003Y642620D01*
X534670Y611293D02*
X623570Y611293D01*
X623570Y577427D02*
X534670Y577427D01*
X577427Y607907D02*
X580813Y607907D01*
X579120Y580813D02*
X577427Y579120D01*
X579120Y609600D02*
X579120Y606213D01*
X580813Y606213D02*
X579120Y602827D01*
X623570Y600710D02*
X623017Y600686D01*
X622467Y600613D01*
X621926Y600493D01*
X621398Y600327D01*
X620886Y600115D01*
X620395Y599859D01*
X619928Y599561D01*
X619488Y599224D01*
X619080Y598850D01*
X618706Y598441D01*
X618368Y598002D01*
X618071Y597535D01*
X617815Y597043D01*
X617603Y596531D01*
X617436Y596003D01*
X617316Y595462D01*
X617244Y594913D01*
X617220Y594360D01*
X617244Y593806D01*
X617316Y593257D01*
X617436Y592716D01*
X617603Y592188D01*
X617815Y591676D01*
X618071Y591185D01*
X618368Y590717D01*
X618706Y590278D01*
X619080Y589870D01*
X619488Y589495D01*
X619928Y589158D01*
X620395Y588860D01*
X620886Y588605D01*
X621398Y588393D01*
X621927Y588226D01*
X622467Y588106D01*
X623017Y588034D01*
X623570Y588010D01*
X618067Y602827D02*
X619760Y604520D01*
X623570Y611293D02*
X623570Y600710D01*
X618067Y609600D02*
X618067Y602827D01*
X580813Y607907D02*
X580813Y606213D01*
X619760Y579120D02*
X619760Y585893D01*
X621453Y580813D02*
X619760Y579120D01*
X623570Y588010D02*
X623570Y577427D01*
X618067Y582507D02*
X616373Y579120D01*
X614680Y584200D02*
X618067Y584200D01*
X616373Y585893D02*
X616373Y582507D01*
X618067Y584200D02*
X618067Y582507D01*
X580813Y585893D02*
X580813Y579120D01*
X582507Y580813D01*
X534670Y577427D02*
X534670Y611293D01*
X541867Y609600D02*
X541867Y606213D01*
X540173Y604520D01*
X540173Y602827D02*
X543560Y602827D01*
X540173Y604520D02*
X540173Y602827D01*
X577427Y579120D02*
X577427Y585893D01*
X540174Y580814D02*
X540180Y580666D01*
X540199Y580520D01*
X540231Y580375D01*
X540276Y580235D01*
X540332Y580098D01*
X540401Y579967D01*
X540480Y579842D01*
X540570Y579725D01*
X540670Y579616D01*
X540779Y579517D01*
X540896Y579427D01*
X541020Y579347D01*
X541151Y579279D01*
X541288Y579222D01*
X541429Y579178D01*
X541573Y579146D01*
X541719Y579127D01*
X541867Y579120D01*
X542015Y579127D01*
X542161Y579146D01*
X542305Y579178D01*
X542446Y579222D01*
X542583Y579279D01*
X542714Y579347D01*
X542838Y579427D01*
X542955Y579517D01*
X543064Y579616D01*
X543164Y579725D01*
X543254Y579842D01*
X543333Y579967D01*
X543402Y580098D01*
X543458Y580235D01*
X543503Y580375D01*
X543535Y580520D01*
X543554Y580666D01*
X543560Y580814D01*
X543554Y580961D01*
X543535Y581108D01*
X543503Y581252D01*
X543458Y581393D01*
X543402Y581529D01*
X543333Y581660D01*
X543254Y581785D01*
X543164Y581902D01*
X543064Y582011D01*
X542955Y582111D01*
X542838Y582201D01*
X542714Y582280D01*
X542583Y582348D01*
X542446Y582405D01*
X542305Y582449D01*
X542161Y582481D01*
X542015Y582501D01*
X541867Y582507D01*
X541719Y582501D01*
X541573Y582481D01*
X541429Y582449D01*
X541288Y582405D01*
X541151Y582348D01*
X541020Y582280D01*
X540896Y582201D01*
X540779Y582111D01*
X540670Y582011D01*
X540570Y581902D01*
X540480Y581785D01*
X540401Y581660D01*
X540332Y581529D01*
X540276Y581393D01*
X540231Y581252D01*
X540199Y581108D01*
X540180Y580961D01*
X540174Y580814D01*
X540174Y584200D02*
X540180Y584052D01*
X540199Y583906D01*
X540231Y583761D01*
X540276Y583621D01*
X540332Y583484D01*
X540401Y583353D01*
X540480Y583228D01*
X540570Y583111D01*
X540670Y583002D01*
X540779Y582903D01*
X540896Y582813D01*
X541020Y582733D01*
X541151Y582665D01*
X541288Y582608D01*
X541429Y582564D01*
X541573Y582532D01*
X541719Y582513D01*
X541867Y582506D01*
X542015Y582513D01*
X542161Y582532D01*
X542305Y582564D01*
X542446Y582608D01*
X542583Y582665D01*
X542714Y582733D01*
X542838Y582813D01*
X542955Y582903D01*
X543064Y583002D01*
X543164Y583111D01*
X543254Y583228D01*
X543333Y583353D01*
X543402Y583484D01*
X543458Y583621D01*
X543503Y583761D01*
X543535Y583906D01*
X543554Y584052D01*
X543560Y584200D01*
X543554Y584347D01*
X543535Y584494D01*
X543503Y584638D01*
X543458Y584779D01*
X543402Y584915D01*
X543333Y585046D01*
X543254Y585171D01*
X543164Y585288D01*
X543064Y585397D01*
X542955Y585497D01*
X542838Y585587D01*
X542714Y585666D01*
X542583Y585734D01*
X542446Y585791D01*
X542305Y585835D01*
X542161Y585867D01*
X542015Y585887D01*
X541867Y585893D01*
X541719Y585887D01*
X541573Y585867D01*
X541429Y585835D01*
X541288Y585791D01*
X541151Y585734D01*
X541020Y585666D01*
X540896Y585587D01*
X540779Y585497D01*
X540670Y585397D01*
X540570Y585288D01*
X540480Y585171D01*
X540401Y585046D01*
X540332Y584915D01*
X540276Y584779D01*
X540231Y584638D01*
X540199Y584494D01*
X540180Y584347D01*
X540174Y584200D01*
G54D12*
X373800Y460084D02*
X373800Y456102D01*
X375800Y454111D01*
X381800Y454111D01*
X383800Y456102D01*
X383800Y460084D01*
X383800Y459089D02*
X373800Y459089D01*
X381800Y450129D02*
X383800Y448138D01*
X373800Y448138D01*
X373800Y451124D02*
X373800Y445151D01*
X449924Y587840D02*
X449924Y595840D01*
X447933Y597840D01*
X445942Y597840D01*
X443951Y595840D01*
X443951Y587840D01*
X434991Y593840D02*
X440964Y593840D01*
X435987Y587840D01*
X435987Y597840D01*
X436982Y597840D02*
X434991Y597840D01*
X512760Y495849D02*
X514760Y493858D01*
X514760Y491867D01*
X512760Y489876D01*
X506760Y489876D01*
X504760Y491867D01*
X504760Y493858D01*
X506760Y495849D01*
X506760Y499831D02*
X504760Y501822D01*
X514760Y501822D01*
X514760Y498836D02*
X514760Y504809D01*
X526329Y421960D02*
X524338Y419960D01*
X522347Y419960D01*
X520356Y421960D01*
X520356Y427960D01*
X522347Y429960D01*
X524338Y429960D01*
X526329Y427960D01*
X529316Y427960D02*
X531307Y429960D01*
X533298Y429960D01*
X535289Y427960D01*
X535289Y426960D01*
X529316Y419960D01*
X535289Y419960D01*
X535289Y420960D01*
X572049Y421960D02*
X570058Y419960D01*
X568067Y419960D01*
X566076Y421960D01*
X566076Y427960D01*
X568067Y429960D01*
X570058Y429960D01*
X572049Y427960D01*
X576031Y428960D02*
X577027Y429960D01*
X579018Y429960D01*
X581009Y427960D01*
X581009Y425960D01*
X580013Y424960D01*
X581009Y423960D01*
X581009Y421960D01*
X579018Y419960D01*
X577027Y419960D01*
X576031Y420960D01*
X577027Y424960D02*
X580013Y424960D01*
X609920Y484591D02*
X607920Y486582D01*
X607920Y488573D01*
X609920Y490564D01*
X615920Y490564D01*
X617920Y488573D01*
X617920Y486582D01*
X615920Y484591D01*
X611920Y475631D02*
X611920Y481604D01*
X617920Y476627D01*
X607920Y476627D01*
X607920Y477622D02*
X607920Y475631D01*
X628740Y490564D02*
X638740Y490564D01*
X638740Y486582D01*
X636740Y484591D01*
X635740Y484591D01*
X633740Y486582D01*
X633740Y490564D01*
X633740Y489569D02*
X628740Y484591D01*
X628740Y477622D02*
X628740Y479613D01*
X630740Y481604D01*
X632740Y481604D01*
X633740Y480609D01*
X634740Y481604D01*
X636740Y481604D01*
X638740Y479613D01*
X638740Y477622D01*
X636740Y475631D01*
X634740Y475631D01*
X633740Y476627D01*
X632740Y475631D01*
X630740Y475631D01*
X628740Y477622D01*
X633740Y480609D02*
X633740Y476627D01*
X416840Y627036D02*
X416840Y631018D01*
X414840Y633009D01*
X408840Y633009D01*
X406840Y631018D01*
X406840Y627036D01*
X406840Y628031D02*
X416840Y628031D01*
X408840Y635996D02*
X406840Y637987D01*
X406840Y639978D01*
X408840Y641969D01*
X409840Y641969D01*
X416840Y635996D01*
X416840Y641969D01*
X415840Y641969D01*
X439336Y675120D02*
X439336Y667120D01*
X441327Y665120D01*
X443318Y665120D01*
X445309Y667120D01*
X445309Y675120D01*
X448296Y673120D02*
X450287Y675120D01*
X452278Y675120D01*
X454269Y673120D01*
X454269Y672120D01*
X448296Y665120D01*
X454269Y665120D01*
X454269Y666120D01*
X486500Y678524D02*
X496500Y678524D01*
X496500Y674542D01*
X494500Y672551D01*
X493500Y672551D01*
X491500Y674542D01*
X491500Y678524D01*
X491500Y677529D02*
X486500Y672551D01*
X494500Y669564D02*
X496500Y667573D01*
X496500Y665582D01*
X494500Y663591D01*
X493500Y663591D01*
X486500Y669564D01*
X486500Y663591D01*
X487500Y663591D01*
X484796Y722420D02*
X488778Y722420D01*
X490769Y724420D01*
X490769Y730420D01*
X488778Y732420D01*
X484796Y732420D01*
X485791Y732420D02*
X485791Y722420D01*
X494751Y731420D02*
X495747Y732420D01*
X497738Y732420D01*
X499729Y730420D01*
X499729Y728420D01*
X498733Y727420D01*
X499729Y726420D01*
X499729Y724420D01*
X497738Y722420D01*
X495747Y722420D01*
X494751Y723420D01*
X495747Y727420D02*
X498733Y727420D01*
X463460Y748956D02*
X453460Y748956D01*
X453460Y752938D01*
X455460Y754929D01*
X456460Y754929D01*
X458460Y752938D01*
X458460Y748956D01*
X458460Y749951D02*
X463460Y754929D01*
X453460Y763889D02*
X453460Y757916D01*
X457460Y757916D01*
X457460Y761898D01*
X459460Y763889D01*
X461460Y763889D01*
X463460Y761898D01*
X463460Y757916D01*
X554900Y662596D02*
X544900Y662596D01*
X544900Y666578D01*
X546900Y668569D01*
X547900Y668569D01*
X549900Y666578D01*
X549900Y662596D01*
X549900Y663591D02*
X554900Y668569D01*
X545900Y672551D02*
X544900Y673547D01*
X544900Y675538D01*
X546900Y677529D01*
X548900Y677529D01*
X549900Y676533D01*
X550900Y677529D01*
X552900Y677529D01*
X554900Y675538D01*
X554900Y673547D01*
X553900Y672551D01*
X549900Y673547D02*
X549900Y676533D01*
X617304Y732040D02*
X617304Y740040D01*
X615313Y742040D01*
X613322Y742040D01*
X611331Y740040D01*
X611331Y732040D01*
X607349Y733040D02*
X606353Y732040D01*
X604362Y732040D01*
X602371Y734040D01*
X602371Y736040D01*
X603367Y737040D01*
X602371Y738040D01*
X602371Y740040D01*
X604362Y742040D01*
X606353Y742040D01*
X607349Y741040D01*
X606353Y737040D02*
X603367Y737040D01*
X658204Y671740D02*
X658204Y661740D01*
X654222Y661740D01*
X652231Y663740D01*
X652231Y664740D01*
X654222Y666740D01*
X658204Y666740D01*
X657209Y666740D02*
X652231Y671740D01*
X646258Y671740D02*
X646258Y666740D01*
X643271Y663740D01*
X643271Y661740D01*
X649244Y661740D01*
X649244Y663740D01*
X642276Y608420D02*
X642276Y618420D01*
X646258Y618420D01*
X648249Y616420D01*
X648249Y615420D01*
X646258Y613420D01*
X642276Y613420D01*
X643271Y613420D02*
X648249Y608420D01*
X652231Y616420D02*
X654222Y618420D01*
X654222Y608420D01*
X651236Y608420D02*
X657209Y608420D01*
X658204Y631100D02*
X658204Y621100D01*
X654222Y621100D01*
X652231Y623100D01*
X652231Y624100D01*
X654222Y626100D01*
X658204Y626100D01*
X657209Y626100D02*
X652231Y631100D01*
X644267Y621100D02*
X647253Y621100D01*
X649244Y623100D01*
X649244Y627100D01*
X649244Y629100D01*
X647253Y631100D01*
X645262Y631100D01*
X643271Y629100D01*
X643271Y627100D01*
X645262Y625100D01*
X647253Y625100D01*
X649244Y627100D01*
X571844Y768260D02*
X571844Y758260D01*
X567862Y758260D01*
X565871Y760260D01*
X565871Y761260D01*
X567862Y763260D01*
X571844Y763260D01*
X570849Y763260D02*
X565871Y768260D01*
X556911Y764260D02*
X562884Y764260D01*
X557907Y758260D01*
X557907Y768260D01*
X558902Y768260D02*
X556911Y768260D01*
G54D13*
X460592Y470424D02*
G75*
D01*
G02X460592Y470424I2500J0*
G01*
G54D14*
X473300Y423370D02*
X390300Y423370D01*
X390300Y480870D01*
X473300Y480870D01*
X473300Y423370D01*
X644740Y482600D02*
X655740Y482600D01*
X644740Y482600D02*
X655740Y482600D01*
X341340Y595500D02*
X341340Y674500D01*
X400340Y595500D02*
X400340Y674500D01*
X390340Y595500D02*
X400340Y595500D01*
X351340Y595500D02*
X341340Y595500D01*
X400340Y674500D02*
X390340Y674500D01*
X341340Y674500D02*
X351340Y674500D01*
X405790Y729620D02*
X488290Y729620D01*
X488290Y682620D01*
X405790Y682620D01*
X405790Y729620D01*
X502500Y670560D02*
X513500Y670560D01*
X502500Y670560D02*
X513500Y670560D01*
X465760Y738920D02*
X519760Y738920D01*
X465760Y774920D02*
X519760Y774920D01*
X465760Y742420D02*
X465760Y738920D01*
X465760Y771420D02*
X465760Y774920D01*
X519760Y738920D02*
X519760Y742420D01*
X519760Y774920D02*
X519760Y771420D01*
X447460Y756920D02*
X436460Y756920D01*
X447460Y756920D02*
X436460Y756920D01*
X538900Y670560D02*
X527900Y670560D01*
X538900Y670560D02*
X527900Y670560D01*
X650850Y677540D02*
X568350Y677540D01*
X568350Y724540D01*
X650850Y724540D01*
X650850Y677540D01*
X650240Y655740D02*
X650240Y644740D01*
X650240Y655740D02*
X650240Y644740D01*
X650240Y624420D02*
X650240Y635420D01*
X650240Y624420D02*
X650240Y635420D01*
X650240Y615100D02*
X650240Y604100D01*
X650240Y615100D02*
X650240Y604100D01*
X563880Y752260D02*
X563880Y741260D01*
X563880Y752260D02*
X563880Y741260D01*
G54D15*
X468650Y504190D02*
G75*
D01*
G02X468650Y504190I1250J0*
G01*
X491960Y516140D02*
G75*
D01*
G02X491960Y516140I1250J0*
G01*
X369590Y584000D02*
G75*
D01*
G02X369590Y584000I1250J0*
G01*
X385790Y726320D02*
G75*
D01*
G02X385790Y726320I1250J0*
G01*
X453010Y756920D02*
G75*
D01*
G02X453010Y756920I1250J0*
G01*
X668350Y680840D02*
G75*
D01*
G02X668350Y680840I1250J0*
G01*
G54D16*
X505659Y457440D02*
X505659Y451392D01*
X508199Y449880D01*
X510739Y449880D01*
X513279Y451392D01*
X513279Y457440D01*
X518359Y455928D02*
X520899Y457440D01*
X520899Y449880D01*
X517089Y449880D02*
X524709Y449880D01*
G54D17*
X616891Y635333D02*
X616891Y641380D01*
X615385Y642892D01*
X613880Y642892D01*
X612375Y641380D01*
X612375Y635333D01*
X605602Y635333D02*
X610117Y635333D01*
X610117Y638356D01*
X607107Y638356D01*
X605602Y639868D01*
X605602Y641380D01*
X607107Y642892D01*
X610117Y642892D01*
G54D18*
X-2540Y-2540D02*
X-2540Y97968D01*
X-2540Y-2540D02*
X157968Y-2540D01*
X1602540Y-2540D02*
X1442032Y-2540D01*
X1602540Y-2540D02*
X1602540Y97968D01*
X1602540Y1002540D02*
X1602540Y902032D01*
X1602540Y1002540D02*
X1442032Y1002540D01*
X-2540Y1002540D02*
X157968Y1002540D01*
X-2540Y1002540D02*
X-2540Y902032D01*
X-52540Y-2540D02*
X-152540Y-2540D01*
X-102540Y-52540D02*
X-102540Y47460D01*
X-140040Y-2540D02*
G75*
D01*
G02X-140040Y-2540I37500J0*
G01*
X1652540Y-2540D02*
X1752540Y-2540D01*
X1702540Y-52540D02*
X1702540Y47460D01*
X1665040Y-2540D02*
G75*
D01*
G02X1665040Y-2540I37500J0*
G01*
X1690040Y-2540D02*
G75*
D01*
G02X1690040Y-2540I12500J0*
G01*
X-52540Y1002540D02*
X-152540Y1002540D01*
X-102540Y952540D02*
X-102540Y1052540D01*
X-140040Y1002540D02*
G75*
D01*
G02X-140040Y1002540I37500J0*
G01*
X-127540Y1002540D02*
G75*
D01*
G02X-127540Y1002540I25000J0*
G01*
X-115040Y1002540D02*
G75*
D01*
G02X-115040Y1002540I12500J0*
G01*
G54D19*
X422040Y718120D03*
X634600Y689040D03*

M02*
