G04 Generated by Ultiboard 13.0 *
%FSLAX34Y34*%
%MOMM*%

%ADD10C,0.0001*%
%ADD11C,0.2540*%
%ADD12C,0.1270*%
%ADD13R,3.0053X0.9101*%
%ADD14C,0.5928*%
%ADD15R,0.0001X1.0000*%
%ADD16C,1.3000*%
%ADD17R,0.5291X0.5291*%
%ADD18C,0.9949*%
%ADD19C,1.6088*%
%ADD20R,2.5500X0.9000*%
%ADD21R,7.0000X5.3000*%
%ADD22R,1.4500X1.1500*%
%ADD23O,0.6096X1.7780*%
%ADD24R,1.1500X1.4500*%
%ADD25R,1.4000X1.0500*%
%ADD26R,0.9101X3.0053*%
%ADD27R,3.1500X2.2000*%
%ADD28R,1.8000X0.6000*%
%ADD29R,2.2500X2.1500*%
%ADD30R,1.0500X1.4000*%


G04 ColorRGB 00FF00 for the following layer *
%LNCopper Top*%
%LPD*%
G54D10*
G54D11*
X335280Y431800D02*
X330200Y436880D01*
X541020Y621877D02*
X541020Y619760D01*
X503343Y619760D01*
X539140Y655320D02*
X533400Y661060D01*
X590978Y472483D02*
X590978Y465662D01*
X594360Y462280D01*
X594360Y406400D01*
X589280Y401320D01*
X584200Y401320D01*
X360680Y477520D02*
X360680Y446617D01*
X482960Y571640D02*
X472440Y571640D01*
X472440Y594360D01*
X467360Y599440D01*
X436880Y599440D01*
X431377Y604943D01*
X431377Y619760D01*
X590978Y527517D02*
X590978Y536782D01*
X589280Y538480D01*
X589280Y543560D01*
X584200Y548640D01*
X574040Y548640D01*
X568960Y553720D01*
X568960Y558800D01*
X566420Y561340D01*
X566420Y566843D01*
X604520Y566843D02*
X604520Y538480D01*
X603678Y537638D01*
X603678Y527517D01*
X617220Y621877D02*
X617220Y617220D01*
X370840Y619760D02*
X370840Y670000D01*
X629920Y491600D02*
X629920Y492760D01*
X584200Y492760D01*
X579120Y487680D01*
X579120Y482600D01*
X578278Y481758D01*
X578278Y472483D01*
X527478Y472483D02*
X527478Y481758D01*
X528320Y482600D01*
X528320Y487680D01*
X523240Y492760D01*
X492760Y492760D01*
X492760Y488840D01*
X503343Y604097D02*
X508000Y599440D01*
X508000Y548640D01*
X523240Y508000D02*
X518160Y513080D01*
X518160Y518160D01*
X514778Y521542D01*
X514778Y527517D01*
X619760Y508000D02*
X523240Y508000D01*
X482960Y525640D02*
X482960Y523240D01*
X467360Y523240D01*
X609600Y401320D02*
X609600Y406400D01*
X604520Y411480D01*
X604520Y462280D01*
X603678Y463122D01*
X603678Y472483D01*
X591820Y627380D02*
X591820Y621877D01*
X457200Y487680D02*
X447040Y477520D01*
X421640Y381000D02*
X416560Y381000D01*
X411480Y386080D01*
X411480Y396240D01*
X406400Y401320D01*
X406400Y408620D01*
X527478Y527517D02*
X527478Y537638D01*
X528320Y538480D01*
X528320Y543560D01*
X523240Y548640D01*
X422960Y548640D01*
X457200Y408620D02*
X457200Y401320D01*
X452120Y396240D01*
X452120Y391160D01*
X447040Y386080D01*
X447040Y381000D01*
X617220Y619760D02*
X617220Y621877D01*
X579120Y621877D02*
X579120Y619760D01*
X566420Y619760D01*
X566420Y621877D01*
X635000Y401320D02*
X635000Y406400D01*
X629920Y411480D01*
X629920Y473600D01*
X510540Y718820D02*
X500540Y718820D01*
X431377Y619760D02*
X431377Y634577D01*
X650240Y637540D02*
X650240Y688340D01*
X514760Y756920D02*
X504600Y746760D01*
X502920Y746760D01*
X470760Y751840D02*
X470760Y756920D01*
X706120Y629920D02*
X706120Y635000D01*
X731520Y629920D02*
X731520Y528320D01*
X731520Y426720D01*
X635000Y401320D02*
X640080Y401320D01*
X554380Y746760D02*
X554380Y752500D01*
X558800Y756920D01*
X558800Y797560D01*
X563880Y802640D01*
X568960Y802640D01*
X492760Y802640D02*
X492760Y797560D01*
X487680Y792480D01*
X487680Y777240D01*
X482600Y772160D01*
X447700Y772160D01*
X441960Y766420D01*
X514760Y756920D02*
X518160Y756920D01*
X518160Y802640D01*
X482600Y706120D02*
X500540Y706120D01*
X490220Y734060D02*
X482600Y734060D01*
X502920Y746760D02*
X490220Y734060D01*
X454660Y706120D02*
X393540Y706120D01*
X482600Y734060D02*
X454660Y706120D01*
X533400Y680060D02*
X525780Y687680D01*
X502920Y685140D02*
X502920Y691040D01*
X500540Y693420D01*
X508000Y680060D02*
X502920Y685140D01*
X505460Y660316D02*
X506204Y661060D01*
X505460Y606213D02*
X503343Y604097D01*
X508000Y661060D02*
X506204Y661060D01*
X505460Y660316D02*
X505460Y606213D01*
X431800Y635000D02*
X431800Y655320D01*
X431377Y634577D02*
X431800Y635000D01*
X431800Y655320D02*
X482600Y706120D01*
X405656Y497840D02*
X406400Y497096D01*
X381423Y497840D02*
X360680Y518583D01*
X406400Y495620D02*
X406400Y497096D01*
X405656Y497840D02*
X381423Y497840D01*
X371263Y518583D02*
X360680Y518583D01*
X422216Y541020D02*
X422960Y541764D01*
X422960Y548640D02*
X422960Y541764D01*
X393700Y541020D02*
X371263Y518583D01*
X422216Y541020D02*
X393700Y541020D01*
X467360Y510860D02*
X457200Y500700D01*
X467360Y523240D02*
X467360Y510860D01*
X457200Y500700D02*
X457200Y487680D01*
X492760Y502920D02*
X485140Y502920D01*
X474980Y492760D01*
X474980Y464820D02*
X441960Y431800D01*
X474980Y492760D02*
X474980Y464820D01*
X441960Y431800D02*
X335280Y431800D01*
X731520Y421640D02*
X731520Y426720D01*
X642620Y403860D02*
X713740Y403860D01*
X731520Y421640D01*
X640080Y401320D02*
X642620Y403860D01*
X553720Y599440D02*
X553720Y621877D01*
X558800Y594360D02*
X553720Y599440D01*
X579120Y589280D02*
X574040Y594360D01*
X579120Y566843D02*
X579120Y589280D01*
X574040Y594360D02*
X558800Y594360D01*
X609600Y599440D02*
X599440Y599440D01*
X617220Y617220D02*
X617220Y607060D01*
X609600Y599440D01*
X591820Y571500D02*
X591820Y566843D01*
X591820Y591820D02*
X591820Y571500D01*
X599440Y599440D02*
X591820Y591820D01*
X690880Y650240D02*
X659740Y650240D01*
X706120Y635000D02*
X690880Y650240D01*
X599440Y650240D02*
X640740Y650240D01*
X599440Y650240D02*
X594360Y655320D01*
X539140Y655320D01*
X663100Y701040D02*
X645160Y701040D01*
X640080Y695960D01*
X640080Y675640D01*
X635000Y670560D01*
X520700Y670560D01*
X513740Y661060D02*
X508000Y661060D01*
X731520Y629920D02*
X731520Y635000D01*
X726440Y640080D01*
X670560Y701040D02*
X663100Y701040D01*
X533400Y797560D02*
X538480Y802640D01*
X543560Y802640D01*
X554380Y746760D02*
X553720Y746760D01*
X553720Y713740D01*
X556100Y713740D01*
X573380Y746760D02*
X579120Y741020D01*
X579120Y695960D01*
X574040Y690880D01*
X568960Y690880D01*
X566420Y688340D01*
X556100Y688340D01*
X650240Y688340D02*
X663100Y688340D01*
X659740Y629920D02*
X657860Y629920D01*
X650240Y637540D01*
X640080Y629260D02*
X640080Y610260D01*
X640740Y609600D01*
X640080Y629260D02*
X640740Y629920D01*
X640080Y619760D02*
X617220Y619760D01*
X660400Y608940D02*
X659740Y609600D01*
X726440Y652780D02*
X678180Y701040D01*
X670560Y701040D01*
X726440Y640080D02*
X726440Y652780D01*
X706120Y558800D02*
X660400Y604520D01*
X706120Y558800D02*
X706120Y528320D01*
X660400Y604520D02*
X660400Y608940D01*
X655980Y467360D02*
X650240Y473100D01*
X698500Y426720D02*
X657860Y467360D01*
X655980Y467360D01*
X698500Y426720D02*
X706120Y426720D01*
X619760Y508000D02*
X642620Y508000D01*
X650240Y500380D02*
X650240Y492100D01*
X642620Y508000D02*
X650240Y500380D01*
X617220Y566843D02*
X617220Y561340D01*
X617220Y508000D01*
X583040Y441960D02*
X579120Y441960D01*
X579120Y452120D01*
X565578Y465662D02*
X565578Y472483D01*
X540178Y472483D02*
X540178Y463978D01*
X538480Y462280D01*
X538480Y441960D01*
X537320Y441960D01*
X579120Y452120D02*
X565578Y465662D01*
X552878Y463122D02*
X552878Y472483D01*
X563880Y443120D02*
X563880Y452120D01*
X565040Y441960D02*
X563880Y443120D01*
X563880Y452120D02*
X552878Y463122D01*
X515620Y445660D02*
X515620Y471641D01*
X514778Y472483D01*
X519320Y441960D02*
X515620Y445660D01*
X513001Y529293D02*
X513001Y528241D01*
X513001Y529293D02*
X514778Y527517D01*
X511621Y528241D02*
X492760Y509380D01*
X511621Y528241D02*
X513001Y528241D01*
X492760Y509380D02*
X492760Y502920D01*
X350520Y477520D02*
X335280Y492760D01*
X447040Y477520D02*
X350520Y477520D01*
X335280Y558800D02*
X370840Y594360D01*
X335280Y492760D02*
X335280Y558800D01*
X370840Y594360D02*
X370840Y600000D01*
X330200Y599440D02*
X350520Y619760D01*
X431377Y619760D01*
X330200Y436880D02*
X330200Y599440D01*
X543560Y701040D02*
X533400Y711200D01*
X533400Y797560D01*
X556100Y701040D02*
X543560Y701040D01*
X525780Y706120D02*
X513080Y718820D01*
X510540Y718820D01*
X525780Y687680D02*
X525780Y706120D01*
X520700Y670560D02*
X520700Y668020D01*
X513740Y661060D01*
X427464Y746760D02*
X399524Y718820D01*
X393540Y718820D01*
X441216Y746760D02*
X427464Y746760D01*
X441216Y746760D02*
X441960Y747504D01*
X441960Y747420D01*
X452877Y747420D02*
X457297Y751840D01*
X470760Y751840D01*
X441960Y747420D02*
X452877Y747420D01*
X441216Y747420D02*
X447700Y747420D01*
X441216Y747420D02*
X441588Y747792D01*
X441630Y747834D02*
X441960Y748164D01*
X591820Y650240D02*
X595630Y654050D01*
X591820Y650240D02*
X591820Y627380D01*
G54D12*
X-2540Y-2540D02*
X-2540Y97968D01*
X-2540Y-2540D02*
X157968Y-2540D01*
X1602540Y-2540D02*
X1442032Y-2540D01*
X1602540Y-2540D02*
X1602540Y97968D01*
X1602540Y1002540D02*
X1602540Y902032D01*
X1602540Y1002540D02*
X1442032Y1002540D01*
X-2540Y1002540D02*
X157968Y1002540D01*
X-2540Y1002540D02*
X-2540Y902032D01*
X-52540Y-2540D02*
X-152540Y-2540D01*
X-102540Y-52540D02*
X-102540Y47460D01*
X-140040Y-2540D02*
G75*
D01*
G02X-140040Y-2540I37500J0*
G01*
X1652540Y-2540D02*
X1752540Y-2540D01*
X1702540Y-52540D02*
X1702540Y47460D01*
X1665040Y-2540D02*
G75*
D01*
G02X1665040Y-2540I37500J0*
G01*
X1690040Y-2540D02*
G75*
D01*
G02X1690040Y-2540I12500J0*
G01*
X-52540Y1002540D02*
X-152540Y1002540D01*
X-102540Y952540D02*
X-102540Y1052540D01*
X-140040Y1002540D02*
G75*
D01*
G02X-140040Y1002540I37500J0*
G01*
X-127540Y1002540D02*
G75*
D01*
G02X-127540Y1002540I25000J0*
G01*
X-115040Y1002540D02*
G75*
D01*
G02X-115040Y1002540I12500J0*
G01*
G54D13*
X360680Y446617D03*
X360680Y518583D03*
G54D14*
X345654Y442067D02*
X375706Y442067D01*
X375706Y451167D01*
X345654Y451167D01*
X345654Y442067D01*D02*
X345654Y514033D02*
X375706Y514033D01*
X375706Y523133D01*
X345654Y523133D01*
X345654Y514033D01*D02*
X426827Y604734D02*
X435927Y604734D01*
X435927Y634786D01*
X426827Y634786D01*
X426827Y604734D01*D02*
X498793Y604734D02*
X507893Y604734D01*
X507893Y634786D01*
X498793Y634786D01*
X498793Y604734D01*D02*
G54D15*
X406400Y408620D03*
X457200Y408620D03*
X406400Y495620D03*
X457200Y495620D03*
G54D16*
X406400Y403620D02*
X406400Y403620D01*
X406400Y413620D01*
X406400Y413620D01*
X406400Y403620D01*D02*
X457200Y403620D02*
X457200Y403620D01*
X457200Y413620D01*
X457200Y413620D01*
X457200Y403620D01*D02*
X406400Y490620D02*
X406400Y490620D01*
X406400Y500620D01*
X406400Y500620D01*
X406400Y490620D01*D02*
X457200Y490620D02*
X457200Y490620D01*
X457200Y500620D01*
X457200Y500620D01*
X457200Y490620D01*D02*
G54D17*
X421640Y381000D03*
X635000Y401320D03*
X492760Y802640D03*
G54D18*
X418995Y378355D02*
X424285Y378355D01*
X424285Y383645D01*
X418995Y383645D01*
X418995Y378355D01*D02*
X632355Y398675D02*
X637645Y398675D01*
X637645Y403965D01*
X632355Y403965D01*
X632355Y398675D01*D02*
X490115Y799995D02*
X495405Y799995D01*
X495405Y805285D01*
X490115Y805285D01*
X490115Y799995D01*D02*
G54D19*
X447040Y381000D03*
X609600Y401320D03*
X584200Y401320D03*
X731520Y528320D03*
X706120Y528320D03*
X731520Y426720D03*
X706120Y426720D03*
X543560Y802640D03*
X518160Y802640D03*
X568960Y802640D03*
X731520Y629920D03*
X706120Y629920D03*
G54D20*
X482960Y525640D03*
X482960Y571640D03*
G54D21*
X422960Y548640D03*
G54D22*
X492760Y488840D03*
X492760Y506840D03*
X629920Y473600D03*
X629920Y491600D03*
G54D23*
X514778Y472483D03*
X527478Y472483D03*
X540178Y472483D03*
X552878Y472483D03*
X565578Y472483D03*
X578278Y472483D03*
X590978Y472483D03*
X603678Y472483D03*
X514778Y527517D03*
X527478Y527517D03*
X540178Y527517D03*
X552878Y527517D03*
X565578Y527517D03*
X578278Y527517D03*
X590978Y527517D03*
X603678Y527517D03*
X541020Y566843D03*
X553720Y566843D03*
X566420Y566843D03*
X579120Y566843D03*
X604520Y566843D03*
X591820Y566843D03*
X617220Y566843D03*
X541020Y621877D03*
X553720Y621877D03*
X566420Y621877D03*
X579120Y621877D03*
X604520Y621877D03*
X591820Y621877D03*
X617220Y621877D03*
G54D24*
X519320Y441960D03*
X537320Y441960D03*
X565040Y441960D03*
X583040Y441960D03*
G54D25*
X650240Y473100D03*
X650240Y492100D03*
X508000Y661060D03*
X508000Y680060D03*
X441960Y747420D03*
X441960Y766420D03*
X533400Y661060D03*
X533400Y680060D03*
G54D26*
X431377Y619760D03*
X503343Y619760D03*
G54D27*
X370840Y600000D03*
X370840Y670000D03*
G54D28*
X393540Y693420D03*
X393540Y706120D03*
X393540Y718820D03*
X500540Y693420D03*
X500540Y706120D03*
X500540Y718820D03*
X663100Y688340D03*
X663100Y713740D03*
X663100Y701040D03*
X556100Y701040D03*
X556100Y713740D03*
X556100Y688340D03*
G54D29*
X470760Y756920D03*
X514760Y756920D03*
G54D30*
X640740Y650240D03*
X659740Y650240D03*
X640740Y629920D03*
X659740Y629920D03*
X640740Y609600D03*
X659740Y609600D03*
X554380Y746760D03*
X573380Y746760D03*

M02*
